<svg xmlns="http://www.w3.org/2000/svg" viewBox="0 0 144.62 63.55"><defs><style>.cls-1{fill:#e8d970;}.cls-2{fill:none;stroke:#e8d970;stroke-miterlimit:10;}</style></defs><g id="Layer_2" data-name="Layer 2"><g id="symbols"><path class="cls-1" d="M55.16,0c-1.47.72-1.65,2.7-1,4a5.58,5.58,0,0,0,3.57,2.55c5.83,1.21,9.08,1.88,10.38,8.52,1.16,7.84,2.34,15.9.39,23.74C66.11,49.11,57.42,55.5,47.05,56c-9.89.77-18.47-4.14-27.55-6.63C13.87,48,6.88,48.39,3,53.18c-1.81,2.19-2.47,5.56-.59,7.88,1.62,2.37,6.15,2,6.58-1.12a2.87,2.87,0,0,0-2-3.37,2.84,2.84,0,0,0-3.37,2.3c.08-2.69,4.16-3.67,5.46-1.28a3.9,3.9,0,0,1-2.81,5.86C2.58,64.21-.37,60.43,0,57,1.19,47.92,12.42,45.44,20,47.43c6.18,1.38,11.8,4.31,17.93,5.55C50.13,55.8,63.24,51.42,66.56,38.3c2-7.43,1.17-15.41.28-23-1-6.22-3.9-6.69-9.3-8.18a6,6,0,0,1-3.7-3C53.26,2.7,53.59.64,55.16,0Z"/><path class="cls-1" d="M68,29c.77-2.63-.85-5.28-3.08-6.54-5.6-3.16-15.53-.33-18.14-8-.42-1.35,0-3.19,1.47-3.69a2.75,2.75,0,0,0-.79,3.47C51,21,60.06,17.58,65.57,21.53c2.36,1.52,3.92,4.92,2.47,7.5Z"/><path class="cls-1" d="M67.9,20.87c-.64-5.34-7.82-3.3-10.26-7.16a1.44,1.44,0,0,1,.4-2c-1.11,2.41,3.66,2.85,5.25,3.38A8.1,8.1,0,0,1,66.92,17a3.55,3.55,0,0,1,1,3.84Z"/><path class="cls-1" d="M58.26,52.07C51.2,56,43,51.47,38.2,46.08c-1.94-1.86-3.25-4.47-5.79-5.48-1.52-.64-3.81.1-3.89,1.94a1.77,1.77,0,0,0,1.32,1.88,1.54,1.54,0,0,0,1.82-1.37,1.38,1.38,0,0,0-1.95-1.15,1.45,1.45,0,0,1,2.08,1.15,1.72,1.72,0,0,1-2,1.62,2.06,2.06,0,0,1-1.65-2.14c0-2.15,2.64-3.14,4.42-2.46,2.71.94,4.2,3.58,6.23,5.41,4.65,5,12.31,9.07,18.8,5.45l.65,1.14Z"/><path class="cls-1" d="M34.25,54c-3.31-.79-11.48-1.47-13.19,2.17-.6,1.18.36,3,1.79,2.73a1.56,1.56,0,0,0,1-.79,1.34,1.34,0,0,0-1.33-1.9,1.43,1.43,0,0,1,1.51,2,1.77,1.77,0,0,1-2.68.67A2.49,2.49,0,0,1,20.58,56c1.24-3.05,5.14-3.17,8-3.49a21.74,21.74,0,0,1,6,.47l-.24,1Z"/><path class="cls-1" d="M50.58,23.72A10.64,10.64,0,0,1,62,31c1.59,4.89-.9,11.06-6,12.64-3,1-6.81.43-8.95-2.06,5.2,2.64,11.61-.34,12.44-6,1.1-5.67-3.38-10.57-8.92-11.83Z"/><circle class="cls-2" cx="46.78" cy="24.44" r="1.23"/><circle class="cls-2" cx="46.78" cy="24.44" r="1.23"/><circle class="cls-2" cx="54.06" cy="34.87" r="3.33"/><circle class="cls-2" cx="54.06" cy="34.87" r="3.33"/><circle class="cls-1" cx="43.03" cy="25.22" r="0.87"/><circle class="cls-1" cx="49.27" cy="12.38" r="0.87"/><circle class="cls-1" cx="31.67" cy="46.51" r="0.87"/><circle class="cls-1" cx="10.37" cy="56.52" r="0.87"/><circle class="cls-1" cx="40.23" cy="26.46" r="0.52"/><circle class="cls-1" cx="59.42" cy="11.24" r="0.52"/><circle class="cls-1" cx="33.06" cy="44.12" r="0.52"/><circle class="cls-1" cx="25.28" cy="58.8" r="0.52"/><circle class="cls-1" cx="24.93" cy="57.07" r="0.22"/><circle class="cls-1" cx="38.41" cy="27.86" r="0.29"/><circle class="cls-1" cx="49.74" cy="14.38" r="0.29"/><circle class="cls-1" cx="51.02" cy="15.36" r="0.29"/><path class="cls-1" d="M89.46,0c1.58.64,1.9,2.71,1.32,4.16a6,6,0,0,1-3.7,3c-5.36,1.49-8.31,1.93-9.3,8.18-.89,7.56-1.7,15.54.28,23C81.39,51.42,94.48,55.8,106.75,53c6.12-1.24,11.74-4.17,17.92-5.55,7.53-2,18.76.49,19.91,9.55.4,3.45-2.54,7.24-6.22,6.47a3.89,3.89,0,0,1-2.81-5.86c1.29-2.4,5.39-1.4,5.46,1.28a2.76,2.76,0,1,0-5.4,1.07c.42,3.15,5,3.5,6.58,1.12,1.87-2.33,1.23-5.69-.59-7.88-3.87-4.79-10.85-5.17-16.48-3.79C116,51.88,107.46,56.79,97.57,56,87.22,55.5,78.5,49.11,76.12,38.83c-2-7.84-.77-15.9.39-23.74C77.81,8.48,81,7.78,86.89,6.57A5.58,5.58,0,0,0,90.46,4c.65-1.32.47-3.3-1-4Z"/><path class="cls-1" d="M76.58,29c-1.45-2.58.12-6,2.47-7.5,5.5-4,14.61-.52,18.07-7.24a2.75,2.75,0,0,0-.79-3.47c1.43.51,1.89,2.34,1.47,3.69-2.62,7.65-12.53,4.82-18.13,8-2.24,1.26-3.86,3.91-3.09,6.54Z"/><path class="cls-1" d="M76.73,20.87c-1.19-2.9,2.18-5.23,4.6-5.73,1.79-.52,3.68-.66,5-1.83a1.22,1.22,0,0,0,.2-1.55,1.44,1.44,0,0,1,.4,2c-2.44,3.86-9.62,1.82-10.25,7.16Z"/><path class="cls-1" d="M87,50.93c6.5,3.62,14.15-.48,18.8-5.45,2-1.83,3.52-4.47,6.23-5.41,1.78-.68,4.41.31,4.42,2.46a2.06,2.06,0,0,1-1.65,2.14,1.72,1.72,0,0,1-2-1.62,1.45,1.45,0,0,1,2.08-1.15,1.38,1.38,0,0,0-2,1.15,1.54,1.54,0,0,0,1.82,1.37,1.76,1.76,0,0,0,1.32-1.88c-.08-1.84-2.37-2.58-3.88-1.94-2.55,1-3.86,3.62-5.79,5.48-3.72,4-8.79,7.57-14.54,7.45a11.71,11.71,0,0,1-5.53-1.46L87,50.93Z"/><path class="cls-1" d="M110.13,52.94c3.61-.81,12.33-1.13,13.91,3,.64,1.49-.61,3.62-2.34,3.2a1.79,1.79,0,0,1-1.16-1,1.44,1.44,0,0,1,1.52-2,1.34,1.34,0,0,0-1.34,1.9,1.49,1.49,0,0,0,2.29.46c1.6-1.34.3-3.63-1.36-4.23a10.64,10.64,0,0,0-2.73-.71,22.18,22.18,0,0,0-8.55.37l-.24-1Z"/><path class="cls-1" d="M94,23.72C88.5,25,84,29.88,85.13,35.55c.82,5.67,7.23,8.65,12.43,6-2.14,2.49-5.9,3.08-9,2.06C83.53,42,81,35.87,82.63,31A10.66,10.66,0,0,1,94,23.72Z"/><circle class="cls-2" cx="97.84" cy="24.44" r="1.23"/><circle class="cls-2" cx="97.84" cy="24.44" r="1.23"/><circle class="cls-2" cx="90.56" cy="34.87" r="3.33"/><circle class="cls-2" cx="90.56" cy="34.87" r="3.33"/><circle class="cls-1" cx="101.59" cy="25.22" r="0.87"/><circle class="cls-1" cx="95.35" cy="12.38" r="0.87"/><circle class="cls-1" cx="112.95" cy="46.51" r="0.87"/><circle class="cls-1" cx="134.25" cy="56.52" r="0.87"/><circle class="cls-1" cx="104.39" cy="26.46" r="0.52"/><circle class="cls-1" cx="85.2" cy="11.24" r="0.52"/><circle class="cls-1" cx="111.56" cy="44.12" r="0.52"/><circle class="cls-1" cx="119.34" cy="58.8" r="0.52"/><circle class="cls-1" cx="119.7" cy="57.07" r="0.22"/><circle class="cls-1" cx="106.21" cy="27.86" r="0.29"/><circle class="cls-1" cx="94.88" cy="14.38" r="0.29"/><circle class="cls-1" cx="93.6" cy="15.36" r="0.29"/></g></g></svg>