<svg xmlns="http://www.w3.org/2000/svg" viewBox="0 0 144.62 63.55"><defs><style>.cls-1{fill:#e8d970;}.cls-2{fill:none;stroke:#e8d970;stroke-miterlimit:10;}</style></defs><g id="Layer_2" data-name="Layer 2"><g id="symbols"><path class="cls-1" d="M55.16,63.55c-1.58-.64-1.9-2.7-1.32-4.16a6.07,6.07,0,0,1,3.7-3c5.36-1.48,8.31-1.93,9.3-8.17.89-7.57,1.7-15.55-.29-23C63.23,12.13,50.14,7.75,37.87,10.57,31.75,11.82,26.13,14.75,20,16.13c-7.53,2-18.76-.5-19.91-9.55C-.36,3.12,2.58-.66,6.26.1A3.9,3.9,0,0,1,9.07,6C7.78,8.36,3.68,7.36,3.61,4.68A2.84,2.84,0,0,0,7,7,2.86,2.86,0,0,0,9,3.61C8.59.47,4,.11,2.43,2.5.56,4.82,1.2,8.18,3,10.38c3.87,4.78,10.85,5.17,16.48,3.78,9.08-2.49,17.66-7.4,27.55-6.62,10.35.51,19.07,6.9,21.45,17.19,2,7.84.77,15.9-.39,23.74-1.3,6.61-4.51,7.3-10.38,8.51a5.61,5.61,0,0,0-3.57,2.55c-.65,1.33-.47,3.3,1,4Z"/><path class="cls-1" d="M68,34.52c1.45,2.59-.12,6-2.47,7.5C60.07,46,51,42.54,47.5,49.27a2.74,2.74,0,0,0,.79,3.46c-1.43-.5-1.89-2.33-1.47-3.69,2.62-7.64,12.53-4.82,18.13-8,2.24-1.26,3.86-3.91,3.09-6.55Z"/><path class="cls-1" d="M67.89,42.69c1.19,2.89-2.18,5.23-4.6,5.72-1.79.53-3.68.66-5,1.84A1.22,1.22,0,0,0,58,51.8a1.45,1.45,0,0,1-.4-2C60.08,46,67.26,48,67.89,42.69Z"/><path class="cls-1" d="M57.61,12.62C51.11,9,43.46,13.1,38.8,18.07c-2,1.84-3.51,4.48-6.22,5.41-1.78.68-4.41-.3-4.42-2.46a2.07,2.07,0,0,1,1.65-2.14,1.73,1.73,0,0,1,2,1.63,1.44,1.44,0,0,1-2.08,1.14,1.38,1.38,0,0,0,1.95-1.15,1.54,1.54,0,0,0-1.82-1.36A1.76,1.76,0,0,0,28.52,21c.08,1.83,2.37,2.58,3.88,1.93,2.55-1,3.86-3.61,5.79-5.47C41.91,13.47,47,9.9,52.73,10a11.7,11.7,0,0,1,5.53,1.45l-.65,1.14Z"/><path class="cls-1" d="M34.49,10.62c-3.61.8-12.33,1.12-13.91-3C19.94,6.1,21.19,4,22.92,4.4a1.78,1.78,0,0,1,1.16,1,1.43,1.43,0,0,1-1.52,2A1.33,1.33,0,0,0,23.9,5.47,1.5,1.5,0,0,0,21.61,5C20,6.34,21.31,8.63,23,9.23a10.64,10.64,0,0,0,2.73.71,22.12,22.12,0,0,0,8.54-.36l.25,1Z"/><path class="cls-1" d="M50.58,39.84a12.76,12.76,0,0,0,7.13-4.46C61,31.28,60,24.37,55.18,22a9.12,9.12,0,0,0-8.12,0C49.2,19.5,53,18.91,56,19.93c5.08,1.59,7.57,7.75,6,12.65a10.67,10.67,0,0,1-11.41,7.26Z"/><circle class="cls-2" cx="46.78" cy="39.12" r="1.23"/><circle class="cls-2" cx="46.78" cy="39.12" r="1.23"/><circle class="cls-2" cx="54.06" cy="28.69" r="3.33"/><circle class="cls-2" cx="54.06" cy="28.69" r="3.33"/><circle class="cls-1" cx="43.03" cy="38.33" r="0.87"/><circle class="cls-1" cx="49.27" cy="51.17" r="0.87"/><circle class="cls-1" cx="31.67" cy="17.04" r="0.87"/><circle class="cls-1" cx="10.37" cy="7.03" r="0.87"/><circle class="cls-1" cx="40.23" cy="37.09" r="0.52"/><circle class="cls-1" cx="59.42" cy="52.32" r="0.52"/><circle class="cls-1" cx="33.06" cy="19.43" r="0.52"/><circle class="cls-1" cx="25.28" cy="4.76" r="0.52"/><circle class="cls-1" cx="24.92" cy="6.49" r="0.22"/><circle class="cls-1" cx="38.41" cy="35.7" r="0.29"/><circle class="cls-1" cx="49.74" cy="49.18" r="0.29"/><circle class="cls-1" cx="51.02" cy="48.19" r="0.29"/><path class="cls-1" d="M89.46,63.55c1.47-.72,1.65-2.69,1-4A5.61,5.61,0,0,0,86.89,57c-5.83-1.21-9.08-1.88-10.38-8.51-1.16-7.84-2.34-15.9-.39-23.74C78.51,14.44,87.2,8.06,97.57,7.54c9.89-.78,18.47,4.13,27.55,6.62,5.63,1.39,12.61,1,16.48-3.78,1.81-2.2,2.47-5.56.59-7.88-1.62-2.38-6.15-2-6.58,1.12A2.76,2.76,0,1,0,141,4.68c-.08,2.69-4.16,3.67-5.46,1.29A3.91,3.91,0,0,1,138.36.1c3.68-.76,6.63,3,6.22,6.48-1.15,9.05-12.38,11.54-19.91,9.55-6.18-1.38-11.8-4.31-17.93-5.56C94.49,7.75,81.38,12.14,78.06,25.25c-2,7.43-1.17,15.41-.28,23,1,6.22,3.9,6.69,9.3,8.17a6.07,6.07,0,0,1,3.7,3c.58,1.46.25,3.53-1.32,4.16Z"/><path class="cls-1" d="M76.58,34.52c-.77,2.64.85,5.29,3.08,6.55,5.6,3.15,15.53.33,18.14,8,.42,1.36,0,3.19-1.47,3.69a2.74,2.74,0,0,0,.79-3.46C93.65,42.54,84.56,46,79.05,42c-2.36-1.52-3.92-4.91-2.47-7.5Z"/><path class="cls-1" d="M76.72,42.69C77.36,48,84.54,46,87,49.84a1.45,1.45,0,0,1-.4,2c1.11-2.42-3.66-2.86-5.25-3.39a8.18,8.18,0,0,1-3.63-1.88,3.56,3.56,0,0,1-1-3.84Z"/><path class="cls-1" d="M86.36,11.48c7.06-3.9,15.28.6,20.06,6,1.94,1.86,3.25,4.47,5.79,5.47,1.52.65,3.81-.1,3.89-1.93a1.77,1.77,0,0,0-1.32-1.88A1.54,1.54,0,0,0,113,20.5a1.38,1.38,0,0,0,2,1.15,1.44,1.44,0,0,1-2.08-1.14,1.73,1.73,0,0,1,2-1.63A2.07,2.07,0,0,1,116.46,21c0,2.16-2.64,3.14-4.42,2.46-2.71-.93-4.2-3.57-6.23-5.41C101.16,13.1,93.5,9,87,12.62l-.65-1.14Z"/><path class="cls-1" d="M110.37,9.58c3.31.78,11.48,1.46,13.19-2.17.6-1.19-.36-3-1.79-2.74a1.55,1.55,0,0,0-1,.8,1.33,1.33,0,0,0,1.33,1.89,1.43,1.43,0,0,1-1.51-2,1.76,1.76,0,0,1,2.68-.66A2.48,2.48,0,0,1,124,7.59c-1.24,3.05-5.14,3.18-8,3.5a21.74,21.74,0,0,1-6-.47l.24-1Z"/><path class="cls-1" d="M94,39.84a10.67,10.67,0,0,1-11.41-7.26c-1.59-4.9.9-11.06,6-12.65,3.05-1,6.82-.43,9,2.07-5.2-2.64-11.61.34-12.44,6C84,33.67,88.5,38.58,94,39.84Z"/><circle class="cls-2" cx="97.84" cy="39.12" r="1.23"/><circle class="cls-2" cx="97.84" cy="39.12" r="1.23"/><circle class="cls-2" cx="90.56" cy="28.69" r="3.33"/><circle class="cls-2" cx="90.56" cy="28.69" r="3.33"/><circle class="cls-1" cx="101.59" cy="38.33" r="0.87"/><circle class="cls-1" cx="95.35" cy="51.17" r="0.87"/><circle class="cls-1" cx="112.95" cy="17.04" r="0.87"/><circle class="cls-1" cx="134.25" cy="7.03" r="0.87"/><circle class="cls-1" cx="104.39" cy="37.09" r="0.52"/><circle class="cls-1" cx="85.2" cy="52.32" r="0.52"/><circle class="cls-1" cx="111.56" cy="19.43" r="0.52"/><circle class="cls-1" cx="119.34" cy="4.76" r="0.52"/><circle class="cls-1" cx="119.69" cy="6.49" r="0.22"/><circle class="cls-1" cx="106.21" cy="35.7" r="0.29"/><circle class="cls-1" cx="94.88" cy="49.18" r="0.29"/><circle class="cls-1" cx="93.6" cy="48.19" r="0.29"/></g></g></svg>