<svg xmlns="http://www.w3.org/2000/svg" viewBox="0 0 190.86 29.57"><defs><style>.cls-1{fill:#d8ba3a;}</style></defs><g id="Layer_2" data-name="Layer 2"><g id="Layer_2-2" data-name="Layer 2"><path class="cls-1" d="M88.45,18.57c.61-3.84-2.93-7.57-6.69-7.56A7.87,7.87,0,0,0,74.37,18c-.58,8.35,8.67,12.48,15.57,9,6.8-3,9.81-12.38,4.14-17.82-2.6-2.48-6.32-3.62-10-4.13C60.7,1.78,39.64,18.84,16.19,16,10.62,15.07,3.72,13.79.76,8.37a6.21,6.21,0,0,1,0-5.86C1.7.78,3.84-.49,5.83.18S9,3.1,8.11,4.93a3,3,0,0,0-.24-2.74C6.28-.66,2.51.08,1.18,2.77c-3.06,8.36,9,11.36,15.15,11.93C41.51,17.14,64.93-3.74,90.15,4.58c11.61,4.13,11.28,18.91.43,23.75a13.34,13.34,0,0,1-11.8-.27A10.5,10.5,0,0,1,73.4,17.83c.59-4,4.25-7.48,8.37-7.35s7.5,4.14,6.68,8.09Z"/><path class="cls-1" d="M102.4,18.57c-.82-4,2.71-8,6.69-8.09s7.78,3.33,8.37,7.35a10.5,10.5,0,0,1-5.39,10.23,13.34,13.34,0,0,1-11.8.27c-10.82-4.83-11.2-19.6.43-23.75,25.23-8.32,48.64,12.56,73.83,10.12,6.16-.57,18.2-3.57,15.15-11.93-1.34-2.68-5.09-3.43-6.7-.58a3,3,0,0,0-.23,2.74c-.92-1.83.43-4.11,2.28-4.75s4.13.6,5.11,2.33a6.21,6.21,0,0,1,0,5.86c-3,5.42-9.87,6.7-15.43,7.59-23.45,2.88-44.51-14.18-67.88-11-3.69.51-7.42,1.65-10,4.13-5.67,5.44-2.68,14.79,4.13,17.82,6.9,3.5,16.16-.65,15.58-9A7.87,7.87,0,0,0,109.1,11c-3.76,0-7.3,3.72-6.7,7.56Z"/></g></g></svg>