<svg xmlns="http://www.w3.org/2000/svg" viewBox="0 0 89.89 89.89"><defs><style>.cls-1{fill:#858585;}.cls-2{fill:#b4b4b4;}.cls-3{fill:#5d5d5d;}.cls-4,.cls-5{fill:none;}.cls-4{stroke:#858585;stroke-miterlimit:10;stroke-width:0.5px;}</style></defs><g id="Layer_2" data-name="Layer 2"><g id="symbols"><path class="cls-1" d="M27.4,54.46a9.89,9.89,0,1,1-11-9.81,9.77,9.77,0,0,1,1.08-.06,9.89,9.89,0,0,1,9.7,8A9.77,9.77,0,0,1,27.4,54.46Z"/><path class="cls-2" d="M44.94,28.29V46.77H32.22A5.74,5.74,0,0,1,26.47,41V34a5.75,5.75,0,0,1,5.73-5.75H44.94Z"/><path class="cls-1" d="M32.2,28.29A5.75,5.75,0,0,0,26.47,34v.58l-3.65,3.64-2.7-6.11a2.55,2.55,0,0,1,1.32-3.37l6.84-3a2.56,2.56,0,0,1,3.37,1.32Z"/><path class="cls-3" d="M33,46.77l-5.79,5.8a9.89,9.89,0,0,0-9.7-8,9.77,9.77,0,0,0-1.08.06l10-10V41a5.74,5.74,0,0,0,5.75,5.75Z"/><path class="cls-1" d="M62.49,54.46a9.89,9.89,0,1,0,11-9.81,9.77,9.77,0,0,0-1.08-.06,9.88,9.88,0,0,0-9.7,8A9,9,0,0,0,62.49,54.46Z"/><path class="cls-2" d="M44.94,28.29V46.77H57.67A5.74,5.74,0,0,0,63.42,41V34a5.75,5.75,0,0,0-5.73-5.75H44.94Z"/><path class="cls-1" d="M57.69,28.29A5.75,5.75,0,0,1,63.42,34v.58l3.65,3.64,2.69-6.11a2.55,2.55,0,0,0-1.31-3.37l-6.84-3a2.57,2.57,0,0,0-3.38,1.32Z"/><path class="cls-3" d="M56.87,46.77l5.8,5.8a9.88,9.88,0,0,1,9.7-8,9.77,9.77,0,0,1,1.08.06l-10-10V41a5.74,5.74,0,0,1-5.75,5.75Z"/><path class="cls-1" d="M52.8,35.21h2.72a.48.48,0,0,0,.39-.76l-1.36-1.92a.48.48,0,0,0-.79,0L52.4,34.45A.48.48,0,0,0,52.8,35.21Z"/><path class="cls-1" d="M52.8,39.82h2.72a.48.48,0,0,1,.39.76l-1.36,1.93a.49.49,0,0,1-.79,0L52.4,40.58A.48.48,0,0,1,52.8,39.82Z"/><path class="cls-1" d="M50.87,36.16v2.72a.48.48,0,0,1-.76.39l-1.93-1.36a.49.49,0,0,1,0-.79l1.93-1.36A.48.48,0,0,1,50.87,36.16Z"/><path class="cls-1" d="M57.44,38.88V36.16a.49.49,0,0,1,.77-.4l1.92,1.36a.49.49,0,0,1,0,.79l-1.92,1.36A.49.49,0,0,1,57.44,38.88Z"/><path class="cls-1" d="M34.34,35.16h2.73a.49.49,0,0,0,.39-.77L36.1,32.47a.49.49,0,0,0-.79,0L34,34.39A.49.49,0,0,0,34.34,35.16Z"/><line class="cls-4" x1="34.53" y1="40.09" x2="36.88" y2="42.44"/><line class="cls-4" x1="36.88" y1="40.09" x2="34.53" y2="42.44"/><circle class="cls-1" cx="40" cy="37.62" r="1.64"/><rect class="cls-1" x="29.77" y="36.14" width="2.96" height="2.96" rx="0.73"/><rect class="cls-5" width="89.89" height="89.89"/></g></g></svg>