<svg xmlns="http://www.w3.org/2000/svg" viewBox="0 0 89.89 89.89"><defs><style>.cls-1{fill:#1e6f50;}.cls-2,.cls-3{fill:#33984b;}.cls-3{stroke:#5ac54f;stroke-miterlimit:10;}.cls-4{fill:#99e65f;}.cls-5{fill:#5ac54f;}.cls-6{fill:none;}</style></defs><g id="Layer_2" data-name="Layer 2"><g id="symbols"><rect class="cls-1" x="21.24" y="35.82" width="56.44" height="29.3" rx="3.28"/><rect class="cls-2" x="20.43" y="34.11" width="56.44" height="29.3" rx="3.28"/><rect class="cls-3" x="22.59" y="36.48" width="52.13" height="24.57" rx="1.4"/><path class="cls-4" d="M51.21,40.71A8.75,8.75,0,0,0,46,41.3c-3,1.27-4.38,5.51-1.61,7.56,1.91,1.39,5,0,7.46.13,3.88-.15,6.77,4.48,2.94,6.92a10.85,10.85,0,0,1-5.7,1,8.72,8.72,0,0,1-4.09-1,1.54,1.54,0,0,1-.62-1.24c.19,1,1.19,1.23,2,1.28,2.49.15,5.4-.08,7.52-1.37,2.18-1.66,0-3.79-2.14-3.66-2.75.05-6,1.4-8.53-.57-3.77-3-1.83-8.76,2.38-10a8,8,0,0,1,5.55.31Z"/><path class="cls-4" d="M44.17,38.91a36.8,36.8,0,0,1,6,19.2,76.88,76.88,0,0,1-6-19.2Z"/><path class="cls-4" d="M46.29,38.67A22,22,0,0,1,51.36,47a21.74,21.74,0,0,1,1.27,9.65c-.61-1.53-1.11-3-1.61-4.54-1.4-4.22-3.33-9.19-4.73-13.42Z"/><circle class="cls-5" cx="31.89" cy="49.17" r="3.23"/><circle class="cls-5" cx="64.82" cy="49.17" r="3.23"/><rect class="cls-1" x="16.9" y="31.1" width="56.44" height="29.3" rx="3.28"/><rect class="cls-2" x="16.1" y="29.39" width="56.44" height="29.3" rx="3.28"/><rect class="cls-3" x="18.26" y="31.76" width="52.13" height="24.57" rx="1.4"/><path class="cls-4" d="M46.88,36a8.74,8.74,0,0,0-5.19.59c-3,1.27-4.38,5.51-1.61,7.56,1.91,1.39,5,0,7.45.13,3.88-.15,6.77,4.48,2.94,6.91a10.84,10.84,0,0,1-5.69,1,8.91,8.91,0,0,1-4.1-1A1.56,1.56,0,0,1,40.06,50c.19,1,1.19,1.23,2,1.28,2.48.14,5.4-.08,7.52-1.37,2.18-1.66,0-3.79-2.15-3.66-2.75,0-6,1.4-8.53-.57-3.76-3-1.82-8.76,2.39-10a8.06,8.06,0,0,1,5.55.32Z"/><path class="cls-4" d="M39.84,34.19a36.89,36.89,0,0,1,6,19.2,76.47,76.47,0,0,1-6-19.2Z"/><path class="cls-4" d="M42,34A22,22,0,0,1,47,42.26a21.89,21.89,0,0,1,1.27,9.65c-.62-1.53-1.11-3-1.62-4.54C45.29,43.15,43.35,38.17,42,34Z"/><circle class="cls-5" cx="27.56" cy="44.45" r="3.23"/><circle class="cls-5" cx="60.48" cy="44.45" r="3.23"/><rect class="cls-1" x="13.01" y="26.47" width="56.44" height="29.3" rx="3.28"/><rect class="cls-2" x="12.2" y="24.77" width="56.44" height="29.3" rx="3.28"/><rect class="cls-3" x="14.36" y="27.13" width="52.13" height="24.57" rx="1.4"/><path class="cls-4" d="M43,31.36a8.64,8.64,0,0,0-5.18.6c-3,1.27-4.39,5.51-1.62,7.55,1.91,1.39,5,0,7.46.13,3.88-.15,6.77,4.49,2.94,6.92a10.85,10.85,0,0,1-5.7,1,8.72,8.72,0,0,1-4.09-1,1.54,1.54,0,0,1-.62-1.24c.19.95,1.19,1.23,2,1.28,2.49.15,5.4-.07,7.52-1.36,2.18-1.67,0-3.79-2.14-3.66-2.75,0-6,1.4-8.53-.58-3.77-3-1.83-8.75,2.38-10a8.11,8.11,0,0,1,5.55.31Z"/><path class="cls-4" d="M35.94,29.57A36.78,36.78,0,0,1,42,48.77a77.14,77.14,0,0,1-6.05-19.2Z"/><path class="cls-4" d="M38.06,29.33a22,22,0,0,1,5.07,8.3,21.79,21.79,0,0,1,1.27,9.66c-.61-1.54-1.11-3-1.61-4.54-1.4-4.23-3.33-9.2-4.73-13.42Z"/><circle class="cls-5" cx="23.66" cy="39.82" r="3.23"/><circle class="cls-5" cx="56.59" cy="39.82" r="3.23"/><rect class="cls-6" width="89.89" height="89.89"/></g></g></svg>