<svg xmlns="http://www.w3.org/2000/svg" viewBox="0 0 89.89 89.89"><defs><style>.cls-1{fill:#571c27;}.cls-2{fill:#ffa214;}.cls-3{fill:#c85086;}.cls-4{fill:#93388f;}.cls-5{fill:#e69c69;}.cls-6{fill:#1b1b1b;}.cls-7{fill:#272727;}.cls-8{fill:#dd925f;}.cls-11,.cls-9{fill:none;}.cls-10{fill:#fff;}.cls-11{stroke:#fff;stroke-miterlimit:10;}</style></defs><g id="Layer_2" data-name="Layer 2"><g id="symbols"><path class="cls-1" d="M78.45,42.23l-6.89,6.9-30.8-30.8,6.89-6.9a4.2,4.2,0,0,1,5.94,0L78.45,36.3A4.19,4.19,0,0,1,78.45,42.23Z"/><path class="cls-2" d="M71.56,49.13,42.23,78.45a4.19,4.19,0,0,1-5.93,0L11.43,53.59a4.2,4.2,0,0,1,0-5.94L40.76,18.33Z"/><path class="cls-3" d="M48.47,60.74h0a15.41,15.41,0,0,1-2.48,2l.27-1c.18-.65.35-1.3.53-1.94A11.26,11.26,0,0,1,45,62.28h0A11.69,11.69,0,0,1,41,65.14a11.41,11.41,0,0,1-4.16.85,11.63,11.63,0,0,1-3.52-.47.62.62,0,0,1,0-.13,11.41,11.41,0,0,0,7.35-6.13l-4,.17a14.24,14.24,0,0,0,3-1.76,15.8,15.8,0,0,0,5.9-9.29,9.78,9.78,0,0,1-6.69,2.3A14.54,14.54,0,0,0,44,43.9l-6,1.46,2-3.32a10.16,10.16,0,0,0-7.18.86,10.35,10.35,0,0,1,.87-1.38,11.39,11.39,0,0,1,8.49-4.47c2-.09,1.73.74.67,2.05A4.8,4.8,0,0,1,47.05,38a7.19,7.19,0,0,1,3.81,2.23,9.75,9.75,0,0,1,2.45,8.33c-.36-.76-.73-1.52-1.1-2.28a14.71,14.71,0,0,1-3.74,14.46Z"/><path class="cls-4" d="M33.27,65.52,33,65.45l.22-.06A.62.62,0,0,0,33.27,65.52Z"/><path class="cls-5" d="M39.55,57.67a8.33,8.33,0,0,1-2.5-.14,14.39,14.39,0,0,1-5.23-2.42,4.41,4.41,0,0,1-2.19-3,2.62,2.62,0,0,1,0-.56,6.1,6.1,0,0,1,.93-2.3C32.21,46.43,33,44.34,35.23,42a9.91,9.91,0,0,1,4.84,0l-2,3.32,6-1.46a14.54,14.54,0,0,1-5.28,6.78,9.78,9.78,0,0,0,6.69-2.3A15.8,15.8,0,0,1,39.55,57.67Z"/><path class="cls-4" d="M33.26,65.39a6.77,6.77,0,0,1,0-.78,5,5,0,0,1,0-.54h0a11,11,0,0,1,.16-1.17,7.59,7.59,0,0,1,3.62-5.37,8.33,8.33,0,0,0,2.5.14,14.24,14.24,0,0,1-3,1.76l4-.17A11.41,11.41,0,0,1,33.26,65.39Z"/><path class="cls-6" d="M34.08,76.23,12.27,54.43c.51-1.43,1.72-1.88,3.24-1.89a9.51,9.51,0,0,1,4.32,1.32,41.64,41.64,0,0,1,5.22,3.23s-2.41,5.08,8.32,9.25c.23,1.44.73,2.87,1.1,4.28A7.31,7.31,0,0,1,34.08,76.23Z"/><path class="cls-7" d="M33.37,66.34c-10.73-4.17-8.32-9.25-8.32-9.25s5.15,8,8.22,7a5,5,0,0,0,0,.54,6.77,6.77,0,0,0,0,.78l-.22.06.23.07C33.3,65.79,33.33,66.07,33.37,66.34Z"/><path class="cls-8" d="M33.27,64.07h0c-3.07,1-8.22-7-8.22-7a18.32,18.32,0,0,0,4.58-5,4.41,4.41,0,0,0,2.19,3,14.39,14.39,0,0,0,5.23,2.42,7.59,7.59,0,0,0-3.62,5.37A11,11,0,0,0,33.27,64.07Z"/><path class="cls-9" d="M25.1,57.13a.1.1,0,0,1-.05,0"/><path class="cls-9" d="M37.79,57.21a6.11,6.11,0,0,0-.74.32"/><path class="cls-9" d="M25.05,57.09a13.54,13.54,0,0,1-1.73,1.1"/><line class="cls-9" x1="33.27" y1="64.07" x2="33.27" y2="64.07"/><path class="cls-3" d="M38.16,71.2c1-1.28,1.92-2.56,2.89-3.85L35,69.26c.67-1,1.12-2.26,1.79-3.26h0A11.41,11.41,0,0,0,41,65.14,11.69,11.69,0,0,0,45,62.28h0a11.26,11.26,0,0,0,1.74-2.49c-.18.64-.35,1.29-.53,1.94l-.27,1a15.41,15.41,0,0,0,2.48-2A27,27,0,0,1,38.16,71.2Z"/><path class="cls-4" d="M29.64,51.51c-.86.46-2.38,1.55-3.23,2q1-2,2-4.07l-2,1.76a21.33,21.33,0,0,1,7.42-9.69,10.35,10.35,0,0,0-.87,1.38A9.87,9.87,0,0,1,35.23,42c-2.25,2.32-3,4.41-4.66,7.19A6.1,6.1,0,0,0,29.64,51.51Z"/><path class="cls-9" d="M37.64,62.33a8.4,8.4,0,0,1-4.54.53"/><path class="cls-10" d="M46.66,17.65l.27-.4.43.26,2.14-2.14L49.08,15l.32-.5.1,0,.47.47.51-.51a2.07,2.07,0,0,1,.69-.47,1.15,1.15,0,0,1,.66,0,1.41,1.41,0,0,1,.57.36,2.09,2.09,0,0,1,.24.31,1.68,1.68,0,0,1,.17.41,1.51,1.51,0,0,1,0,.48l-1-.08,0-.62-.07-.07a.31.31,0,0,0-.31-.11.88.88,0,0,0-.29.18l-.72.72.7.7a0,0,0,0,1,0,.07l-.43.43L50.08,16,48,18.09l.55.73-.34.33Z"/><path class="cls-10" d="M50,21a2,2,0,0,1-.54-.9,1.74,1.74,0,0,1,0-1,2.45,2.45,0,0,1,.62-1,2.58,2.58,0,0,1,1-.65,1.87,1.87,0,0,1,1,0,1.82,1.82,0,0,1,.86.49,2,2,0,0,1,.39.58,1.35,1.35,0,0,1,.1.65,1.06,1.06,0,0,1-.33.61,1.21,1.21,0,0,1-.62.36,1.36,1.36,0,0,1-.66-.06,2.3,2.3,0,0,1-.66-.34,4.23,4.23,0,0,1-.61-.51L50.41,19a1.36,1.36,0,0,0-.29.78,1.12,1.12,0,0,0,.39.82A1.6,1.6,0,0,0,51,21a2.06,2.06,0,0,0,.5.11l-.31.58a1.52,1.52,0,0,1-.38-.08,2.27,2.27,0,0,1-.45-.21A2.75,2.75,0,0,1,50,21Zm.9-2.45.15.16a3.28,3.28,0,0,0,.33.3,1.9,1.9,0,0,0,.4.25.77.77,0,0,0,.41.09.56.56,0,0,0,.38-.19.45.45,0,0,0,.16-.4.66.66,0,0,0-.19-.36.84.84,0,0,0-.5-.26,1.32,1.32,0,0,0-.58.07A1.62,1.62,0,0,0,50.86,18.55Z"/><path class="cls-10" d="M51.45,22.44l.28-.38.44.25,2.12-2.12L54,19.87l.3-.43.92.65-.06.42a2.35,2.35,0,0,1,.52.19,1.74,1.74,0,0,1,.46.33,1.8,1.8,0,0,1,.36.5,1.05,1.05,0,0,1,.09.55,1.88,1.88,0,0,1,.52.14,1.91,1.91,0,0,1,.4.23c.11.08.2.16.28.23a1.67,1.67,0,0,1,.4.59,1.06,1.06,0,0,1,0,.61,1.22,1.22,0,0,1-.37.6l-1.75,1.75.27.43L56,27l-1.27-1.27.32-.35.44.28L57.13,24a.69.69,0,0,0,.25-.48.64.64,0,0,0-.22-.46,1.11,1.11,0,0,0-.4-.26,1.26,1.26,0,0,0-.49-.1l-1.86,1.87.28.43-.35.33-1.25-1.26.32-.35.42.26,1.64-1.64a.71.71,0,0,0,.25-.49.61.61,0,0,0-.22-.45,1.07,1.07,0,0,0-.44-.28,1.18,1.18,0,0,0-.43-.1l-1.88,1.88.29.45-.35.33Z"/><path class="cls-10" d="M56.71,27.72l-.07-.24,4-4-.37-.33.32-.44.91.68v.4L60,25.28a1.36,1.36,0,0,1,.39.15,1.52,1.52,0,0,1,.39.29,1.57,1.57,0,0,1,.47.86,1.81,1.81,0,0,1-.11.94,2.77,2.77,0,0,1-.63.91,3.05,3.05,0,0,1-.77.58,2.07,2.07,0,0,1-.77.21,1.82,1.82,0,0,1-.73-.13,2.09,2.09,0,0,1-.64-.44,1.79,1.79,0,0,1-.3-.38,1.33,1.33,0,0,1-.19-.4Zm1.36.45a1,1,0,0,0,.56.28,1.12,1.12,0,0,0,.63-.13,2.52,2.52,0,0,0,.63-.46,2.73,2.73,0,0,0,.45-.61,1.18,1.18,0,0,0,.14-.61.93.93,0,0,0-.27-.55,1.11,1.11,0,0,0-.34-.22.81.81,0,0,0-.38-.08l-1.76,1.76a1.15,1.15,0,0,0,.12.32A1.79,1.79,0,0,0,58.07,28.17Z"/><path class="cls-10" d="M60.72,31.77a1.74,1.74,0,0,1-.48-.89,1.89,1.89,0,0,1,.08-1,2.67,2.67,0,0,1,.62-1,2.48,2.48,0,0,1,1-.63,1.91,1.91,0,0,1,1-.06,1.84,1.84,0,0,1,.87.5,1.77,1.77,0,0,1,.49.87,1.84,1.84,0,0,1-.06,1,2.58,2.58,0,0,1-.63,1,2.53,2.53,0,0,1-1,.63,1.85,1.85,0,0,1-1,.08A1.76,1.76,0,0,1,60.72,31.77Zm.48-.48a1,1,0,0,0,.53.27,1.13,1.13,0,0,0,.61-.12A2.41,2.41,0,0,0,63,31a2.46,2.46,0,0,0,.47-.63,1.25,1.25,0,0,0,.14-.63.85.85,0,0,0-.27-.53.79.79,0,0,0-.39-.23.94.94,0,0,0-.47,0,1.67,1.67,0,0,0-.48.21,3.26,3.26,0,0,0-.47.38,2.42,2.42,0,0,0-.45.62,1.07,1.07,0,0,0-.1.59A.89.89,0,0,0,61.2,31.29Z"/><path class="cls-10" d="M61.33,35.75a1.48,1.48,0,0,1-.26-.38,1.65,1.65,0,0,1-.14-.55l.69-.15a1.31,1.31,0,0,1,0,.28.46.46,0,0,0,.13.29.3.3,0,0,0,.22.1,1.17,1.17,0,0,0,.3-.05l.33-.14.57-.27,1.93-3.94-.23-.24.33-.43.83.72-1.65,3.33L67.2,33,67,32.74l.33-.43.82.71-.11.33-.5.24-.71.33-.82.39-.88.42-.86.41-.77.35c-.23.12-.43.21-.6.28a2.88,2.88,0,0,1-.64.2,1.23,1.23,0,0,1-.51,0A.85.85,0,0,1,61.33,35.75Z"/><circle class="cls-11" cx="71.93" cy="39.64" r="4.3"/><path class="cls-11" d="M71,37.11A5.1,5.1,0,0,1,71.4,39l-2.13-.49"/><path class="cls-11" d="M74.42,40.63l-2.11-.37.51,2.05"/><rect class="cls-9" width="89.89" height="89.89"/></g></g></svg>