<svg xmlns="http://www.w3.org/2000/svg" viewBox="0 0 89.89 89.89"><defs><style>.cls-1{fill:#d8ba3a;}.cls-2{fill:none;}</style></defs><g id="Layer_2" data-name="Layer 2"><g id="symbols"><g id="Layer_2-2" data-name="Layer 2"><g id="Layer_1-2" data-name="Layer 1-2"><path class="cls-1" d="M66.63,23.6A30.43,30.43,0,1,0,22.91,66l.69.69.12.12a30.19,30.19,0,0,0,14,7.89,30.67,30.67,0,0,0,14.75,0l.31-.08a30.44,30.44,0,0,0,13.83-51ZM37.36,35.06s-.11-6.87.89-9.55c0,0,.7,4.19,3,5.74C39.74,32,37.36,35.06,37.36,35.06Zm6.76,10.82c.05-.07,2.05-3.36,4-.49-.07-.06-1.71-1.59-4,.49Zm4.74,5.73c.25,0,.49-.22.74-.13.9.47,1.42.2,1.81-.7a1.18,1.18,0,0,1-1.85,1l-.09,0a1,1,0,0,0-.25.06,1.37,1.37,0,0,1-.34.07c-.78.06-1.18-.75-1.15-1.42.15.53.48,1.22,1.12,1.13Zm0,5.24C48,58.71,47,58.14,47,58.14a5,5,0,0,0,1.89-1.29Zm-.14.91,0,.05h0a.56.56,0,0,1,0,.08l-.16.21h0l-.1.12,0,.05,0,0-.08.07,0,0-.06,0-.06,0-.2.11h0l-.08,0a.86.86,0,0,1-.39,0H47.2l-.11,0h0l.23-.09.21-.11.2-.1.32-.19.1-.07.13-.09,0,0,.16-.12,0,0h0l0,0a2.08,2.08,0,0,0,.21-.2h0a1.61,1.61,0,0,0,.19-.19h0v0h0a2.55,2.55,0,0,1-.17.33l-.06.09Zm3.19-.59v.2s0,.09,0,.13v.06l0,.19a.69.69,0,0,1,0,.2.59.59,0,0,1,0,.13.64.64,0,0,1,0,.07h0s0,0,0,.07l0,.13a.19.19,0,0,1,0,.07s0,.07,0,.1a1,1,0,0,1,0,.1c0,.09-.07.18-.11.27l0,.07a.75.75,0,0,1-.07.12l0,.07-.09.12,0,.06-.05.06-.1.12,0,.06-.06,0,0,.06-.12.1-.13.1-.14.09a1.71,1.71,0,0,1-.23.13l-.08,0-.35.13-.15,0-.15,0-.21,0a3.41,3.41,0,0,1-.46,0h.1l.07,0h0l.14-.07.09-.05h0l.12-.07.06,0,.09-.06,0,0,0,0,.2-.15.05,0h0l0,0h0l.14-.12,0,0h0l.19-.18.06-.07h0l.09-.1,0-.06.07-.08.07-.08.07-.09a6.36,6.36,0,0,0,.49-.78l.1-.22a6,6,0,0,0,.3-.84l0-.13,0-.13s0-.05,0-.07v0l0-.08v0h0v0h0v0c0-.1,0-.19.05-.29h0v0s0,0,0,0,0,0,0,0v.06a5.85,5.85,0,0,1,.07.72Zm3.49-10.59A2.55,2.55,0,0,0,51.92,46c.09-.08,2.37-2.16,3.51.55ZM53.67,31.67s2.1-2.25,2.43-3.45c.56,1,0,5.56,0,5.56A7.58,7.58,0,0,0,53.67,31.67Zm1.46,32.88-.09.33A1.24,1.24,0,0,1,55,65h0l-.12.47-.08.27-.2.67v0l0,.1c0,.05,0,.1,0,.14a1.83,1.83,0,0,1-.08.25q0,.17-.09.3l0,.1a.88.88,0,0,0,0,.15l0,0a.08.08,0,0,1,0,0v0a1.12,1.12,0,0,0,0,.13.08.08,0,0,1,0,0,.43.43,0,0,1,0,.05l0,0,0,.06h0l-.29-.61h0v0s0,0,0,0h0v0h0v0a0,0,0,0,0,0,0l-.15-.36a7.09,7.09,0,0,0,.4-2.91h0l0-.13a1.91,1.91,0,0,0-1.25-1.24l-.12,0h0l-.13,0-.1,0h-.17l0,0h0l0,0,.09-.07,0,0h0l0,0h.05l0,0h0v0h0s0,0,0,0l0,0h0a2.77,2.77,0,0,0-.5-.1,9.54,9.54,0,0,0,3-5.65,3.59,3.59,0,0,1,.47,1.38h0s0,.07,0,.1a1.16,1.16,0,0,1,0,.18h0l0,.18,0,.2h0c0,.06,0,.13,0,.19s0,.12,0,.19h0a1,1,0,0,0,0,.17v.72h0V60c0,.11,0,.23,0,.34l0,.21v.14l0,.19c0,.12,0,.24,0,.36h0c0,.12,0,.24-.05.36s0,.36-.08.54l0,.18c0,.12,0,.25-.07.37q-.13.72-.3,1.41c0,.17-.07.34-.11.5Zm.3,4.79C56.71,67.49,58,66,58,66c7.44-8.64.21-20.74.21-20.74.59-1.23.19-4.43.17-4.55h0a3.16,3.16,0,0,1,.25.6l0,.09c0,.1.06.2.09.32l.06.25,0,.1a1.55,1.55,0,0,1,0,.21.43.43,0,0,1,0,.11h0A8.39,8.39,0,0,1,59,44v0c0,.1,0,.2,0,.31v.21a7.69,7.69,0,0,0,.24-3v0a2.48,2.48,0,0,0,0-.27v0c0-.08,0-.17,0-.26,0-.31-.11-.62-.18-.92l-.09-.34a1.09,1.09,0,0,0-.05-.17c-.06-.22-.12-.43-.19-.64-.2-.58-.42-1.15-.67-1.71,0-.09-.09-.18-.13-.27a18.32,18.32,0,0,0-1.31-2.33h0c.18-1.09.29-2.15.36-3.12v-.2c0-.24,0-.47,0-.69,0-1.2,0-2.22,0-2.92,0-.07,0-.13,0-.19s0-.18,0-.26V27a.62.62,0,0,1,0-.13c0-.08,0-.15,0-.21v0h0v-.08h0a21.82,21.82,0,0,1-4.67,4.34h0a9,9,0,0,0-1.24-.51,14.13,14.13,0,0,0-5.52-.48l-.24,0c-.27,0-.54.06-.79.1l-.21,0-.1,0-.21,0h0l-.19,0-.28.06H43.3l-.17,0h-.08l-.15,0h0l-.22.05h0l-.16,0h0l-.13,0h-.25l-.06,0h0l-.07,0h-.11c-.06-.06-.11-.13-.16-.19l-.16-.21c-.23-.31-.44-.63-.64-1L40.79,29c-.06-.1-.12-.2-.17-.3a1.65,1.65,0,0,1-.14-.26,24.6,24.6,0,0,1-1.54-3.62l0-.07-.07-.24c-.06-.17-.1-.34-.15-.48V24c0-.06,0-.12,0-.18a.36.36,0,0,1,0-.1.44.44,0,0,1,0-.1,0,0,0,0,0,0,0s0-.07,0-.1h0v0c-.06.06-.11.13-.17.2l0,.06s0,.05-.06.07,0,.06-.06.1l-.05.08a.76.76,0,0,0-.07.13l-.06.11a.83.83,0,0,0-.07.13h0l0,.09c-.07.14-.13.29-.2.45s0,.12-.07.19l0,.09-.07.18,0,.09-.12.38h0l-.12.4h0l-.06.2h0l-.06.21,0,.1a1.17,1.17,0,0,1,0,.2l0,.11,0,.21a.52.52,0,0,0,0,.11l-.11.44h0c0,.07,0,.14,0,.21h0c-.08.34-.15.69-.21,1l-.09.51-.09.49,0,.18-.06.36c0,.12,0,.24-.05.35V31s0,.06,0,.09h0a3.06,3.06,0,0,1,0,.32s0,.08,0,.12v0s0,.05,0,.08a2.07,2.07,0,0,0,0,.22h0c0,.11,0,.2,0,.29a.29.29,0,0,1,0,.09.25.25,0,0,1,0,.08v.16s0,.06,0,.09v0s0,0,0,.06a.13.13,0,0,1,0,.06V33h0v.19c0,.05,0,.09,0,.13v.11a.22.22,0,0,0,0,.08v.07h0a.17.17,0,0,1,0,.07c-3,2.94-3.15,7.68-3.15,7.68s0,.31,0,.49h0c0,.05,0,.1,0,.16h0c0,.08,0,.17,0,.26a.28.28,0,0,1,0,.09c0,.12,0,.25,0,.38s0,.14,0,.21,0,.14,0,.2h0c0,.14,0,.29,0,.44h0c0,.11,0,.23,0,.34l0,.49c0,.16,0,.32,0,.49h0l0,.52h0c0,.13,0,.26,0,.39h0c0,.41,0,.83-.07,1.26,0,.12,0,.24,0,.36a1.15,1.15,0,0,1,0,.19l0,.55,0,.37,0,.36c0,.24,0,.49-.05.72l0,.54c0,.11,0,.23,0,.35l-.06.8,0,.38c0,.07,0,.13,0,.19q0,.38-.06.72v.17c0,.11,0,.22,0,.33l0,.3c0,.13,0,.26,0,.37v0a1.1,1.1,0,0,0,0,.18c0,.06,0,.09,0,.13v.15s0,0,0,.07a.2.2,0,0,0,0,.07.31.31,0,0,0,0,.11v0s0,0,0,0v0a.57.57,0,0,1,0,.15v0h0a.36.36,0,0,1,0,.11h0s0,0,0,0,0,0,0,.06a12.24,12.24,0,0,1-1.26,2.2l-.15.22-.14.21h0l-.14.19h0l-.07.1L30,58.1l0,.06h0l0,0h0l0,0,0,0h0l0,0h0l0,0,0,0s0,0,0,0l0,0-.05.06,0,0v0l0,0-.05.06h0v0h0a3.55,3.55,0,0,0-2.2.87A5.37,5.37,0,0,0,26.54,63a1.93,1.93,0,0,0-.39.3,26.27,26.27,0,1,1,29.28,6.08Zm1-21.34a15.73,15.73,0,0,1,1.76,13.33C58.21,61.12,59.1,53.35,56.43,48Z"/></g></g><rect class="cls-2" width="89.89" height="89.89"/></g></g></svg>