<svg xmlns="http://www.w3.org/2000/svg" viewBox="0 0 127.19 99.36"><defs><style>.cls-1{fill:#d8ba3a;}.cls-2{fill:#e8d970;}</style></defs><g id="Layer_2" data-name="Layer 2"><g id="Layer_2-2" data-name="Layer 2"><path class="cls-1" d="M100.36,79.26a83.52,83.52,0,0,0-4.12,8.12c-1.33,2.91-2.87,6.18-5.46,8.23-5.25,4-13.08,5.2-18.87,1.7a62.62,62.62,0,0,1,13.46-10c2.25-1.11,5.2-1.56,7.86-2.82a14.37,14.37,0,0,0,6.27-5.73l.86.49Z"/><path class="cls-1" d="M60.82,71.75a18.49,18.49,0,0,0-6.77,4.6c-1.93,2.09-3.83,4.84-6.59,5.83-5.54,1.83-11.41,2.26-17-.23a40.09,40.09,0,0,1,14-8.21c2.66-.9,5.55-.11,8.3-.18a13,13,0,0,0,7.55-2.68l.49.87Z"/><path class="cls-1" d="M28.79,60.88c-1.86,0-3.14,1.84-4.52,3-2.52,1.64-6.53.61-8.68-1.44a14.2,14.2,0,0,1,3.24-1.79c1.56-.52,3-1.25,4.59-.79l1.76.59a3.42,3.42,0,0,0,3.24-.48l.37.94Z"/><path class="cls-1" d="M60.48,71.23C61.8,67.39,58.42,64,57,60.74c-1.17-3.26-1.09-6.53-1.52-10a59.11,59.11,0,0,1-.17-7.8c5.74,2.88,9,8.76,10,14.84.44,3.6-1.85,6.75-3.08,9.94a7.54,7.54,0,0,0-.73,3.69l-1-.14Z"/><path class="cls-1" d="M101.52,78.14c.52-2.5-.91-4.93-2.67-6.59-1.31-1.24-2.9-2.19-4-3.56-3-4.44-5.29-8.23-8.41-13a13.11,13.11,0,0,1,8.23,1.55c3.58,2,7.11,5.22,7.89,9.43.4,2.82-.36,5.68-.41,8.46a10,10,0,0,0,.38,3.72l-1,0Z"/><path class="cls-1" d="M29.48,60.89c.92-2.14-2.05-3.51-2.58-5.32a22.23,22.23,0,0,1-.89-6.1,6.5,6.5,0,0,1,5.6,6.33c-.19,1.72-1.6,3.52-1.13,5.16l-1-.07Z"/><path class="cls-1" d="M80.73,76.9c-2.92,1.63-3.27,5.81-6,7.68a11.39,11.39,0,0,1-9.57,2,31.1,31.1,0,0,1,7.16-5.66c2.37-1.4,6.67-1.45,7.65-4.64l.78.63Z"/><path class="cls-1" d="M82.67,76.38c.78-3.24-2.79-5.66-3.86-8.25A45.71,45.71,0,0,1,76,59.29a12,12,0,0,1,7.25,7c1.43,3.12-.66,6.91.46,10l-1,.07Z"/><path class="cls-1" d="M44.75,67c-2.15.41-3.53,2.24-5.07,3.69s-3.93,1.63-6,1.69a10.35,10.35,0,0,1-4.27-.88A29.32,29.32,0,0,1,36.6,68c2.48-.74,5.79.54,7.64-1.86l.51.86Z"/><path class="cls-1" d="M46.54,67c1.53-2.44-1.71-4.73-2.53-6.64a19.11,19.11,0,0,1-1.2-7.23A7.84,7.84,0,0,1,48.39,59c.7,2.69-2,5.44-.85,8l-1-.08Z"/><path class="cls-2" d="M125.27,81.39A211.92,211.92,0,0,1,0,44.15,209.88,209.88,0,0,0,125.1,77.39a2,2,0,1,1,.17,4Z"/><path class="cls-1" d="M101.26,70a86.1,86.1,0,0,0-6.85,6c-2.32,2.22-5,4.67-8.13,5.61-6.36,1.72-14.08-.06-18.15-5.46a62.53,62.53,0,0,1,16.22-4.25c2.5-.19,5.4.49,8.35.32a14.44,14.44,0,0,0,8-3l.61.78Z"/><path class="cls-1" d="M67.38,48.29a18.36,18.36,0,0,0-8,1.74C56.81,51.25,54,53.09,51.09,53c-5.83-.36-11.43-2.16-15.72-6.56A40.23,40.23,0,0,1,51.47,44c2.81.16,5.19,2,7.77,2.93a13,13,0,0,0,8,.33l.14,1Z"/><path class="cls-1" d="M41.71,26.25c-1.74-.66-3.61.55-5.31,1.08-2.94.58-6.28-1.87-7.51-4.57a14.32,14.32,0,0,1,3.68-.46c1.63.1,3.21-.06,4.55,1l1.41,1.21a3.43,3.43,0,0,0,3.18.76v1Z"/><path class="cls-1" d="M67.25,47.68c2.66-3.07.79-7.48.67-11,.13-3.46,1.42-6.47,2.33-9.88A60.85,60.85,0,0,1,73,19.46c4.25,4.8,5.08,11.48,3.73,17.49-.93,3.5-4.23,5.57-6.55,8.08a7.3,7.3,0,0,0-2.06,3.15l-.87-.5Z"/><path class="cls-1" d="M102.75,69.39c1.42-2.12,1-4.91,0-7.11-.75-1.63-1.87-3.11-2.38-4.79-1.12-5.24-1.84-9.61-2.94-15.25a13.19,13.19,0,0,1,7.06,4.5c2.57,3.21,4.64,7.51,3.8,11.7-.68,2.76-2.45,5.13-3.53,7.69a10.1,10.1,0,0,0-1,3.6l-.94-.34Z"/><path class="cls-1" d="M42.35,26.53c1.65-1.65-.6-4-.41-5.9a22.54,22.54,0,0,1,1.44-6,6.5,6.5,0,0,1,2.84,8c-.82,1.53-2.8,2.67-3,4.36l-.9-.43Z"/><path class="cls-1" d="M83.93,60.49c-3.32.43-5.2,4.17-8.45,4.88a11.41,11.41,0,0,1-9.62-1.72,31.24,31.24,0,0,1,8.75-2.58c2.72-.42,6.73,1.14,8.83-1.46l.49.88Z"/><path class="cls-1" d="M85.93,60.73c1.92-2.71-.49-6.29-.52-9.09a46.71,46.71,0,0,1,.66-9.27,12,12,0,0,1,4.12,9.19C90.35,55,87,57.72,86.87,61l-.94-.31Z"/><path class="cls-1" d="M54.23,37.9c-2.15-.43-4.11.76-6.08,1.53s-4.25,0-6.23-.68a10.3,10.3,0,0,1-3.63-2.41,29.46,29.46,0,0,1,8-.55c2.57.24,5.16,2.66,7.78,1.12l.15,1Z"/><path class="cls-1" d="M55.89,38.56c2.34-1.7.18-5,.13-7.11a19,19,0,0,1,1.59-7.15,7.83,7.83,0,0,1,3,7.55c-.36,2.75-3.88,4.3-3.8,7.15l-.9-.44Z"/><path class="cls-2" d="M123.58,81.26A211.89,211.89,0,0,1,21.23,0,210,210,0,0,0,124.91,77.49a2,2,0,1,1-1.33,3.77Z"/></g></g></svg>