<svg xmlns="http://www.w3.org/2000/svg" viewBox="0 0 127.19 99.36"><defs><style>.cls-1{fill:#d8ba3a;}.cls-2{fill:#e8d970;}</style></defs><g id="Layer_2" data-name="Layer 2"><g id="Layer_2-2" data-name="Layer 2"><path class="cls-1" d="M27.69,78.77A14.42,14.42,0,0,0,34,84.5c2.67,1.26,5.61,1.71,7.86,2.82a63,63,0,0,1,11.57,8.22c.61.54,1.24,1.07,1.9,1.77a14.49,14.49,0,0,1-7.37,2,18.84,18.84,0,0,1-11.51-3.75c-3.85-3.13-5.2-8.26-7.48-12.44a37.61,37.61,0,0,0-2.1-3.91l.86-.49Z"/><path class="cls-1" d="M66.86,70.88a13,13,0,0,0,7.55,2.68c2.75.07,5.64-.72,8.3.18A40.09,40.09,0,0,1,96.76,82c-5.61,2.49-11.49,2.06-17,.23-2.76-1-4.66-3.74-6.59-5.83a18.49,18.49,0,0,0-6.77-4.6l.49-.87Z"/><path class="cls-1" d="M98.77,59.94c1.33,1.24,3.48.45,5-.11s3,.27,4.59.79a14.2,14.2,0,0,1,3.24,1.79c-2.15,2-6.16,3.08-8.68,1.44-1.37-1.13-2.66-2.94-4.52-3l.37-.94Z"/><path class="cls-1" d="M65.72,71.37c.19-4.16-3.32-7.5-3.78-11.58-.29-6.52,4-13.95,10-16.89A81.63,81.63,0,0,1,71,57.49c-.11,3.12-2.2,5.58-3.58,8.28-.75,1.69-1.41,3.68-.7,5.46l-1,.14Z"/><path class="cls-1" d="M24.68,78.1c1.38-4.64-1.36-9.66.54-14.24,2.85-5.57,9.09-9.84,15.54-8.92-3.12,4.82-5.42,8.61-8.41,13-1.52,1.84-3.85,3-5.29,5a6.64,6.64,0,0,0-1.39,5.17l-1,0Z"/><path class="cls-1" d="M96.71,61c.47-1.64-.94-3.44-1.13-5.16a6.5,6.5,0,0,1,5.6-6.33,22.23,22.23,0,0,1-.89,6.1c-.53,1.81-3.5,3.18-2.58,5.32l-1,.07Z"/><path class="cls-1" d="M47.24,76.27c1,3.19,5.28,3.24,7.65,4.64a31.37,31.37,0,0,1,7.16,5.66,11.4,11.4,0,0,1-9.57-2c-2.75-1.88-3.1-6-6-7.68l.78-.63Z"/><path class="cls-1" d="M43.52,76.31c1.12-3.12-1-6.91.46-10a12,12,0,0,1,7.25-7,45.71,45.71,0,0,1-2.85,8.84c-1.07,2.59-4.64,5-3.86,8.25l-1-.07Z"/><path class="cls-1" d="M83,66.15c1.86,2.4,5.16,1.12,7.64,1.86a29.32,29.32,0,0,1,7.22,3.5c-3.17,1.34-7.53,1.3-10.3-.81C86,69.25,84.59,67.42,82.44,67l.51-.86Z"/><path class="cls-1" d="M79.65,67.08c1.14-2.61-1.55-5.37-.85-8a7.84,7.84,0,0,1,5.58-5.9,18.91,18.91,0,0,1-1.2,7.23c-.82,1.91-4.06,4.2-2.53,6.64l-1,.08Z"/><path class="cls-2" d="M2.09,77.39a209.88,209.88,0,0,0,125.1-33.24A211.92,211.92,0,0,1,1.92,81.39a2,2,0,1,1,.17-4Z"/><path class="cls-1" d="M26.55,69.22a14.44,14.44,0,0,0,8,3c2.94.17,5.84-.51,8.34-.32a62.94,62.94,0,0,1,13.8,3.31,25.34,25.34,0,0,1,2.42.94A14.4,14.4,0,0,1,53,80.78a18.8,18.8,0,0,1-12.07.82c-4.75-1.47-7.91-5.72-11.58-8.75A38.13,38.13,0,0,0,25.93,70l.62-.78Z"/><path class="cls-1" d="M60,47.3A13,13,0,0,0,68,47c2.58-1,5-2.77,7.77-2.93a40.23,40.23,0,0,1,16.1,2.38c-4.29,4.4-9.89,6.2-15.72,6.56-2.93.11-5.72-1.73-8.29-2.95a18.33,18.33,0,0,0-8-1.74l.14-1Z"/><path class="cls-1" d="M85.48,25.25c1.69.65,3.39-.88,4.6-2s2.91-.88,4.54-1a14.32,14.32,0,0,1,3.68.46c-1.23,2.7-4.57,5.16-7.51,4.57-1.7-.53-3.57-1.74-5.31-1.08v-1Z"/><path class="cls-1" d="M59.07,48.18c-1.38-3.93-5.87-5.72-7.83-9.34-2.7-5.94-1.48-14.44,2.95-19.38a80.71,80.71,0,0,1,4.59,13.87c1.06,2.94,0,6-.23,9-.07,1.85.07,3.95,1.39,5.33l-.87.5Z"/><path class="cls-1" d="M23.5,69.73c-.45-4.82-4.86-8.46-4.81-13.42.56-6.23,4.76-12.52,11.09-14.07-1.09,5.64-1.82,10-2.93,15.25-.73,2.27-2.46,4.22-3.05,6.59a6.62,6.62,0,0,0,.64,5.31l-.94.34Z"/><path class="cls-1" d="M83.94,27c-.17-1.69-2.15-2.83-3-4.36a6.51,6.51,0,0,1,2.84-8,22.54,22.54,0,0,1,1.44,6c.19,1.87-2.06,4.25-.41,5.9l-.9.43Z"/><path class="cls-1" d="M43.75,59.61c2.1,2.6,6.11,1,8.83,1.46a31.14,31.14,0,0,1,8.75,2.58,11.4,11.4,0,0,1-9.62,1.72c-3.25-.71-5.13-4.45-8.44-4.88l.48-.88Z"/><path class="cls-1" d="M40.32,61c-.13-3.31-3.48-6-3.32-9.48a12,12,0,0,1,4.12-9.19,46.71,46.71,0,0,1,.66,9.27c0,2.8-2.44,6.38-.51,9.09l-1,.31Z"/><path class="cls-1" d="M73.11,36.91c2.62,1.54,5.21-.88,7.78-1.12a29.46,29.46,0,0,1,8,.55,10.3,10.3,0,0,1-3.63,2.41c-2,.73-4.16,1.38-6.23.68s-3.93-2-6.08-1.53l.15-1Z"/><path class="cls-1" d="M70.4,39c.08-2.85-3.44-4.4-3.8-7.15a7.83,7.83,0,0,1,3-7.55,18.84,18.84,0,0,1,1.59,7.15c0,2.08-2.21,5.41.13,7.11l-.9.44Z"/><path class="cls-2" d="M2.28,77.49A210,210,0,0,0,106,0,211.89,211.89,0,0,1,3.61,81.26a2,2,0,1,1-1.33-3.77Z"/></g></g></svg>