<svg xmlns="http://www.w3.org/2000/svg" viewBox="0 0 255.33 154.85"><defs><style>.cls-1{fill:#d8ba3a;}.cls-2{fill:#fff;}.cls-3{fill:#e8d970;}</style></defs><g id="Layer_2" data-name="Layer 2"><g id="Layer_2-2" data-name="Layer 2"><path class="cls-1" d="M66.16,72.78A50.29,50.29,0,0,0,76,72.52a11.89,11.89,0,0,0,3-.78,3.31,3.31,0,0,0,1.4-1.14,3.22,3.22,0,0,0,.37-2.39A8.92,8.92,0,0,0,79.52,65,17.16,17.16,0,0,0,77.8,62.8c-1.92-2.39-4.1-4.58-6.18-6.82-2.34-2.54-4.84-4.94-7.08-7.54a26.71,26.71,0,0,1-4-5.87,13.46,13.46,0,0,1-1.4-5.88,9,9,0,0,1,1.24-4.42,13.16,13.16,0,0,1,4.11-4.47,27.34,27.34,0,0,1,8.32-4,33.71,33.71,0,0,1,7.54-1.56,24.07,24.07,0,0,1,10.56,1.19,12.28,12.28,0,0,1,3.64,2,6.41,6.41,0,0,1,1.92,2.49,5.25,5.25,0,0,1-.36,4.42,16.84,16.84,0,0,1-2.86,3.8,21,21,0,0,1-8.74,5.1,10.69,10.69,0,0,1-2.6.41A4.66,4.66,0,0,1,79.62,41c-.36-.21-.78-.47-.72-1s.41-.73.83-.88a23.34,23.34,0,0,0,4-2.08,28.53,28.53,0,0,0,4-3.28,7.09,7.09,0,0,0,2-4.42,4.82,4.82,0,0,0-.16-1.72,1.29,1.29,0,0,0-.93-.93,10.57,10.57,0,0,0-2.86-.11,23.84,23.84,0,0,0-11.44,4.11,14.41,14.41,0,0,0-2.5,2.13,7.36,7.36,0,0,0-1.71,7.23A13.94,13.94,0,0,0,72.5,44.8,64.85,64.85,0,0,0,77.86,51c.52.52,1,1,1.45,1.51,1.41,1.56,2.81,3,4.11,4.58A43.2,43.2,0,0,1,88.88,65a12.24,12.24,0,0,1,1.25,3.33,5.85,5.85,0,0,1-2.65,6.34,12.68,12.68,0,0,1-3.8,1.67,28.42,28.42,0,0,1-6.5,1.09,55.64,55.64,0,0,1-6.71,0c-2.08-.1-4.11-.31-6.13-.57a37.66,37.66,0,0,1-9.83-2.55A16.51,16.51,0,0,1,50,71.59a6.51,6.51,0,0,1-1.88-2.4A3.07,3.07,0,0,1,48.58,66a10.6,10.6,0,0,1,3.54-2.91,20,20,0,0,1,9.25-2.5,18.65,18.65,0,0,1,8.22,1.72,7.13,7.13,0,0,1,2.55,1.87,2.25,2.25,0,0,1,.52.89,1,1,0,0,1-1,1.3,8.81,8.81,0,0,1-2.91-.58c-.63-.26-1.25-.46-1.88-.72a7.18,7.18,0,0,0-3.12-.42,12.85,12.85,0,0,0-6.65,2.5,3.4,3.4,0,0,0-1,.93,1.36,1.36,0,0,0,.21,2.08,5.9,5.9,0,0,0,2.55,1.3A31.7,31.7,0,0,0,66.16,72.78Z"/><path class="cls-1" d="M100.11,64.46a6.76,6.76,0,0,0,1.14-1,32.18,32.18,0,0,0,2.55-2.91c1.72-2.08,3.49-4.11,5.31-6.13a4.25,4.25,0,0,1,1-.94,2.49,2.49,0,0,1,1-.42.83.83,0,0,1,1,1,2.68,2.68,0,0,1-.47.94c-1,1.35-2,2.65-3,3.9-1.82,2.23-3.64,4.47-5.51,6.71a6.77,6.77,0,0,1-3,2.18,5.35,5.35,0,0,1-5-.62,3.48,3.48,0,0,1-1.25-1.61,10.11,10.11,0,0,1-.83-5.26,43.24,43.24,0,0,1,1.66-8.11c.68-2.13,1.1-4.32,1.72-6.45,1-3.59,2-7.23,3.22-10.76.73-2.19,1.67-4.27,2.5-6.4.73-1.92,1.56-3.74,2.44-5.56.58-1.15,1.2-2.29,1.83-3.38a9.18,9.18,0,0,1,.93-1.25,3.66,3.66,0,0,1,1.35-.83,5.43,5.43,0,0,1,3.54.05,1.93,1.93,0,0,1,1.4,2.29,11.64,11.64,0,0,1-.52,2A54,54,0,0,1,110.82,28c-1.35,3.27-2.54,6.55-3.64,9.83-1.82,5.51-3.59,11-5.25,16.59a39.92,39.92,0,0,0-1.56,6.5,24.28,24.28,0,0,0-.26,2.75A2,2,0,0,0,100.11,64.46Z"/><path class="cls-1" d="M108.85,58.33A20.17,20.17,0,0,1,111.6,48a10.65,10.65,0,0,1,2.19-2.65,5.63,5.63,0,0,1,3.79-1.3,1,1,0,0,0,.83-.37,8.68,8.68,0,0,1,6.09-3.43,9.81,9.81,0,0,1,5.2.52,6.18,6.18,0,0,1,3.8,4.89,14.16,14.16,0,0,1-.21,5.87A42,42,0,0,1,132,55.88s0,.1-.11.21.06.26.21.26a4.93,4.93,0,0,0,.94-.11,35,35,0,0,0,7-1.71c.78-.31,1.51-.63,2.23-.89a8.11,8.11,0,0,1,1.41-.36,3.84,3.84,0,0,1,.73,0,.68.68,0,0,1,.41,1.1,2.75,2.75,0,0,1-1.19,1.09c-.58.31-1.2.62-1.82.88a35,35,0,0,1-7.6,2c-1,.21-2.08.31-3.12.47a.73.73,0,0,0-.57.36,23.15,23.15,0,0,1-3.48,4.84,14.29,14.29,0,0,1-6.3,4.16,9.48,9.48,0,0,1-8.47-1.46,8,8,0,0,1-2.55-3.59A15.42,15.42,0,0,1,108.85,58.33Zm8.32-4.48a20.35,20.35,0,0,0-.26,2.34,18.91,18.91,0,0,0,.67,5.93,9.8,9.8,0,0,0,.89,2.34c.26.42.31.42.72.21a13.15,13.15,0,0,0,4-3.38,18.06,18.06,0,0,0,1.45-2.08c.16-.31.16-.36-.15-.47a6.77,6.77,0,0,1-1-.21,11.34,11.34,0,0,1-5.2-3.22A17.32,17.32,0,0,1,117.17,53.85Zm6.34-2.91v.47a6.17,6.17,0,0,0,1.09,3.27,3.81,3.81,0,0,0,1.3,1.1c.21.15.37.1.47-.16a6.58,6.58,0,0,1,.26-.73c.36-1.09.62-2.23.88-3.38a13,13,0,0,0,.21-4,7.65,7.65,0,0,0-.78-2.6,2.1,2.1,0,0,0-.52-.68.29.29,0,0,0-.47,0l-.46.47A11.78,11.78,0,0,0,123.51,50.94Z"/><path class="cls-1" d="M148,64.46a1.05,1.05,0,0,0,.62-.36,32.72,32.72,0,0,0,3.33-3.75c1.56-1.87,3.12-3.69,4.73-5.46a16.38,16.38,0,0,1,1.25-1.25,2.25,2.25,0,0,1,1.25-.46.79.79,0,0,1,.88,1,2.72,2.72,0,0,1-.57,1.09c-.88,1.2-1.82,2.34-2.75,3.54-1.72,2.18-3.59,4.31-5.31,6.5a7.72,7.72,0,0,1-2.91,2.39,5.62,5.62,0,0,1-4.58.1,3.85,3.85,0,0,1-2-1.87,10,10,0,0,1-1-5.51,45.18,45.18,0,0,1,1.87-8.74c.57-1.82.89-3.69,1.41-5.51,1.76-6.19,2.65-9.1,3.48-12,.21-.68.21-.58-.52-.58-22,.37-24,.94-25.95,1.72a10.48,10.48,0,0,0-2.08,1.14c-.36.26-.36.32,0,.63s.31.57,0,.88a2,2,0,0,1-1.3.42,5.42,5.42,0,0,1-3.54-1.77,2.23,2.23,0,0,1-.36-2.86,6.08,6.08,0,0,1,1.92-2.08,14.28,14.28,0,0,1,3.9-1.82,31.92,31.92,0,0,1,5.83-.94c1.14-.05,2.28-.05,23.5-.05a.73.73,0,0,0,.83-.57c.52-1.25,3.43-6.92,3.43-6.92a7.5,7.5,0,0,1,1.2-1.61A3.2,3.2,0,0,1,155.8,19a5.58,5.58,0,0,1,3.43.1,1.83,1.83,0,0,1,1.41,2.24,13,13,0,0,1-1,3.43l-1.09,2.81c-.16.36-.31.73-.42,1-.21.57-.21.62.42.68s1,.15,1.51.15c19-.05,21.21.31,23.29,1a11.29,11.29,0,0,1,2.71,1.46,4.91,4.91,0,0,1,1,1.09,1.09,1.09,0,0,1-1,1.77,2.58,2.58,0,0,1-1.51-.31,10.83,10.83,0,0,0-4.58-1.2c-18.77.1-20.69,0-22.57-.1-1-.06-.88-.11-1.19.78-1.87,5.56-4.53,14.35-6.24,19.91a60.81,60.81,0,0,0-1.56,5.88c-.21,1.3-.37,2.55-.47,3.8A2.9,2.9,0,0,0,148,64.46Z"/><path class="cls-1" d="M169.89,40.7a8.72,8.72,0,0,1,5.05,1.35,4.85,4.85,0,0,1,2.29,3.38,6.35,6.35,0,0,1-.06,2.6,7.29,7.29,0,0,1-4,5.2,5.65,5.65,0,0,1-3.69.31,2.29,2.29,0,0,1-1-.42,1,1,0,0,1-.21-1.61,6.62,6.62,0,0,0,1-1.4,5.23,5.23,0,0,0,.89-2.45,4.74,4.74,0,0,0-.47-2.65c-.11-.26-.26-.26-.47-.15a6.19,6.19,0,0,0-2.08,1.76,10.1,10.1,0,0,0-2,4.74,12.19,12.19,0,0,0,1.1,6.65c.57,1.2,1.14,2.4,1.76,3.59.21.52.26.52.78.21,3.59-2,7.08-4.16,10.66-6.24l2.34-1.41a6.28,6.28,0,0,1,1.72-.67,2.21,2.21,0,0,1,1-.05.64.64,0,0,1,.47,1.09,3,3,0,0,1-.84.78c-1.3.88-2.6,1.66-3.9,2.5-3.22,2-6.5,3.84-9.77,5.77-.26.15-.52.36-.83.52s-.32.36-.16.67c.31.73.57,1.51.83,2.29a17.46,17.46,0,0,1,.73,4.68,8.22,8.22,0,0,1-5.3,7.65,10.73,10.73,0,0,1-8.58-.52,5.6,5.6,0,0,1-2.71-2.76,3.65,3.65,0,0,1,.05-3.43A10.65,10.65,0,0,1,156.69,70,49.89,49.89,0,0,1,161.94,66c.41-.31.41-.31.15-.78-.93-1.77-1.82-3.64-2.75-5.46a19.48,19.48,0,0,1-2-6.55,9.76,9.76,0,0,1,1.51-6.5,12.76,12.76,0,0,1,8.63-5.78,10,10,0,0,1,1.2-.2A7.88,7.88,0,0,1,169.89,40.7Zm-5.4,31.56a5,5,0,0,0-.11-1.56,9.29,9.29,0,0,0-.67-2c-.06-.26-.16-.31-.37-.15a1.41,1.41,0,0,1-.31.21,29.78,29.78,0,0,0-3.33,3.12,4.15,4.15,0,0,0-.83,1.24,2.21,2.21,0,0,0-.31,1,3,3,0,0,0,3.07,3.07,1,1,0,0,0,.62-.26,4.8,4.8,0,0,0,2.08-3A5.87,5.87,0,0,0,164.49,72.26Z"/><path class="cls-1" d="M187.11,71.38a5.69,5.69,0,0,1,3.32,1.14A3.63,3.63,0,0,1,192,75a1.44,1.44,0,0,1-.15,1,5.57,5.57,0,0,1-1.41,2.08,4.07,4.07,0,0,1-3.12,1.19,6.14,6.14,0,0,1-2.54-.57,3.57,3.57,0,0,1-2.29-2.7,3.8,3.8,0,0,1,.15-1.51A4.49,4.49,0,0,1,187.11,71.38Zm-.89-5.57a15.09,15.09,0,0,1,.47-2.7c.62-2.81,1.4-5.56,2.18-8.32,1.72-5.72,3.49-11.34,5.31-16.95,1.4-4.22,2.7-8.43,4-12.59.32-.93.68-1.82,1-2.75a2.48,2.48,0,0,1,1.67-1.56,6.53,6.53,0,0,1,4.21-.06,2.82,2.82,0,0,1,1.35.84,1.44,1.44,0,0,1,.42,1.24,13.35,13.35,0,0,1-.52,1.93c-1,2.81-2,5.61-3,8.42-1,2.65-1.82,5.41-2.7,8.06-2.55,7.59-5.1,15.14-7.6,22.73-.2.47-.31,1-.52,1.45a5.28,5.28,0,0,1-1.3,2.24,4,4,0,0,1-2.23,1,2.64,2.64,0,0,1-2.55-1.66A6,6,0,0,1,186.22,65.81Z"/><path class="cls-2" d="M96.65,124.36l-.5-.28V111.2l-1.12.08-.2-1.22,2.56-.38.62.66v4.82a3.39,3.39,0,0,1,.88-.39,3.71,3.71,0,0,1,1.08-.15,3.6,3.6,0,0,1,2.13.62,4,4,0,0,1,1.33,1.69,6.26,6.26,0,0,1,.46,2.45,6.82,6.82,0,0,1-.32,2.16,4.53,4.53,0,0,1-.9,1.57,4,4,0,0,1-1.37,1,4.48,4.48,0,0,1-1.73.33,4.7,4.7,0,0,1-1.08-.12,3.73,3.73,0,0,1-.94-.34Zm2.9-1.48a2.08,2.08,0,0,0,1.34-.44,2.6,2.6,0,0,0,.8-1.2,5.53,5.53,0,0,0,.26-1.76,5.62,5.62,0,0,0-.25-1.7,2.62,2.62,0,0,0-.76-1.2,1.92,1.92,0,0,0-1.29-.44,2.3,2.3,0,0,0-.92.19,1.87,1.87,0,0,0-.72.49v5.62a2.23,2.23,0,0,0,.71.32A3,3,0,0,0,99.55,122.88Z"/><path class="cls-2" d="M107,129.8a3.21,3.21,0,0,1-1-.2,3.33,3.33,0,0,1-1.1-.64l.86-1.36q.18.12.51.39a1,1,0,0,0,.67.27.73.73,0,0,0,.52-.21,2.29,2.29,0,0,0,.39-.56c.11-.23.21-.48.31-.75l.48-1.34-3.22-9.4h-.74l-.16-1.22,2.48-.18,2.68,8L112,116h-.82l-.16-1.22,2.44-.18.36.72q-.16.44-.42,1.17c-.18.49-.37,1-.59,1.66s-.46,1.27-.7,1.95-.5,1.37-.74,2.07-.49,1.38-.73,2-.46,1.25-.65,1.8-.37,1-.53,1.4a6.47,6.47,0,0,1-.7,1.35,2.89,2.89,0,0,1-.82.79A1.88,1.88,0,0,1,107,129.8Z"/><path class="cls-2" d="M121.37,124.32l-.2-1.26,2.3-.42v-3.4l-3.78-7-.84-.2v-1.5h4.3l.16,1.34-1.36.24,2.76,5.1,2.5-5.14-1.22-.2V110.5h4V112l-.88.2-3.58,7.18v3.26l2.3.42-.18,1.26Z"/><path class="cls-2" d="M134,124.4a3.64,3.64,0,0,1-1.53-.31,2.45,2.45,0,0,1-1.1-1,3.38,3.38,0,0,1-.41-1.8v-5.1h-1l-.2-1.16,2.5-.46.62.66V121a2.42,2.42,0,0,0,.15.92,1.29,1.29,0,0,0,.4.55,1.36,1.36,0,0,0,.54.26,2.22,2.22,0,0,0,.57.07,2.17,2.17,0,0,0,1.07-.3,1.77,1.77,0,0,0,.73-.7v-5.68l-1,0-.18-1.16,2.44-.46.6.66v7.28a.42.42,0,0,0,.12.35.41.41,0,0,0,.26.09l.21,0,.11,0,.28.92a2.11,2.11,0,0,1-.48.35,1.74,1.74,0,0,1-.88.21,1.44,1.44,0,0,1-.82-.22,1.35,1.35,0,0,1-.52-.68,3.07,3.07,0,0,1-1.12.67A4.08,4.08,0,0,1,134,124.4Z"/><path class="cls-2" d="M144.23,124.4a3.64,3.64,0,0,1-1.53-.31,2.45,2.45,0,0,1-1.1-1,3.38,3.38,0,0,1-.41-1.8v-5.1h-1L140,115l2.5-.46.62.66V121a2.42,2.42,0,0,0,.15.92,1.29,1.29,0,0,0,.4.55,1.36,1.36,0,0,0,.54.26,2.22,2.22,0,0,0,.57.07,2.17,2.17,0,0,0,1.07-.3,1.77,1.77,0,0,0,.73-.7v-5.68l-1,0-.18-1.16,2.44-.46.6.66v7.28a.42.42,0,0,0,.12.35.41.41,0,0,0,.26.09l.21,0,.11,0,.28.92a2.11,2.11,0,0,1-.48.35,1.74,1.74,0,0,1-.88.21,1.44,1.44,0,0,1-.82-.22,1.35,1.35,0,0,1-.52-.68,3.07,3.07,0,0,1-1.12.67A4.08,4.08,0,0,1,144.23,124.4Z"/><path class="cls-2" d="M150.83,124.32l-.16-1.08,1.1-.28v-6.8l-1,0-.2-1.16,2.5-.44.58.78a4.17,4.17,0,0,1,1.1-.53,4.11,4.11,0,0,1,1.3-.21,3.79,3.79,0,0,1,1.55.3,2.3,2.3,0,0,1,1,.91,3,3,0,0,1,.37,1.55V123l1.16.24v1.08h-4.08l0-1.08,1.1-.26v-5.24a1.62,1.62,0,0,0-.38-1.18,1.5,1.5,0,0,0-1.08-.38,2.76,2.76,0,0,0-1.16.26,2.65,2.65,0,0,0-.84.54v6l1.18.26,0,1.08Z"/><path class="cls-3" d="M38,4.7A35.85,35.85,0,0,0,25.7,3.47c-2.05,0-4.19-.31-6.2.33-11.81,4-16,19.79-8.93,29.71,2.49,3.5,5.92,6,9.24,8.78a38.69,38.69,0,0,1,13.9,22.27c1.91,8.89,1.1,18.42-3.37,26.56-3.18,6.36-11.41,13.32-7.46,20.84,1.67,2.74,6,3.68,9.16,3,4-.84,7.22-3.1,10.7-5.45,4.76-3.24,9.55-6.57,14.59-9.57a77.14,77.14,0,0,1,16-7.48c8.5-2.7,17.9-3.4,26.46-.55,4.26,1.22,7.82,4.08,11.54,6.24,5,3.11,12.06-2.81,6.95-7.46A3.51,3.51,0,0,0,112.37,93,3.39,3.39,0,0,0,114,96.65c-2.93-1.3-2.46-6.08.36-7.33a4.54,4.54,0,0,1,4.44.68c4.67,3.43,1.67,9.82-3.55,10.53-3.21.46-6.05-1.39-8.58-2.94C97.12,91.47,84.86,92,74.46,95.65c-10.73,3.87-20,10.75-29.23,17.4a49.06,49.06,0,0,1-7.69,4.78c-13.49,6.49-25.65-4.16-18.45-18.08,2-3.91,5.21-7.36,7.27-10.91a36,36,0,0,0,3-29.82,33.56,33.56,0,0,0-6.23-10.83c-5.12-6-13-10-15.8-17.83-3.21-8.34-1-18.66,6-24.43,2.29-2,5.08-3,7.79-4.37A13.14,13.14,0,0,1,25.45.06,15.45,15.45,0,0,1,38,4.7Z"/><path class="cls-1" d="M27.87,5.47c4.41.22,8.94,1,12.32,4.06,2.54,2.32,3.77,6.55,2,9.81a6,6,0,0,1-9.69,1.59,5.58,5.58,0,0,1-1.28-6.5c1-2.1,4.08-3.08,5.72-1.24a2.7,2.7,0,0,1-2.7,4.43c-1.06-.2-.3-1.67.46-.93a1.7,1.7,0,0,0,2.5-.49c1.16-2-1.22-4.29-3.26-3.47-3.12,1-2.94,5.56-.53,7.16a4.41,4.41,0,0,0,4.93,0c3.49-1.83,3.71-6.88,1.13-9.76A9.33,9.33,0,0,0,34.26,7a13.89,13.89,0,0,0-6.25.1.8.8,0,1,1-.14-1.59Z"/><path class="cls-3" d="M.43,33.45c2.41,2.46,4,3.74,5.85,6.23,1,1.58,2.05,3.56,3.61,4.76a54.74,54.74,0,0,1,6.94,5.86,31.71,31.71,0,0,1,8.72,16.27c1.29,6.46-.65,14.11-6.87,17.61-6.65,3.85-16.19-1-14-9.25.86-3.46,5-6.07,8.33-4.13a3.91,3.91,0,0,1,1.83,4.48A3,3,0,0,1,10.91,77,2.54,2.54,0,0,0,14,73.82,3.09,3.09,0,0,0,10,72c-3.34,1-3.92,5.71-1.88,8.07,3.61,4,10,1.91,12.26-2.56,2.63-4.85,1.83-10.61.51-16A27.81,27.81,0,0,0,11.7,47a17.67,17.67,0,0,0-5.1-3.21,14.8,14.8,0,0,1-2.92-1.41C1,40.48-.88,36.8.43,33.45Z"/><path class="cls-3" d="M19.7,110.6c5.09,8.22,16.88,4.06,22.45,12,1.33,1.83.65,5.37-2,5.47-1.28,0-2.52-1.56-1.71-2.67-.38,1.31,1.49,2.28,2.24,1.26,2.1-3.47-4.66-5.64-7.2-6.25-5.23-1.07-13.56-3-13.77-9.83Z"/><path class="cls-3" d="M119.63,92c.46-2.49,3.6-4.44,5.94-3.07a2.84,2.84,0,0,1,1.25,3.32,2.22,2.22,0,0,1-3,1.19,2.09,2.09,0,0,0,2.7-1.3,2.41,2.41,0,0,0-1.24-2.67,3.51,3.51,0,0,0-4.73,2.72l-.9-.19Z"/><path class="cls-1" d="M38,82.91c-2,5-3.09,9.65-6.22,13.85-1.81,2.47-4,5.2-3.73,8.34s3.48,4.11,6.11,3.52c4.53-1.16,7.57-5.64,11.46-8.14A66.24,66.24,0,0,1,63.46,91.7c2.34-.88,4.82-1.22,7.12-2.22a9.2,9.2,0,0,0,2.29-1.43,1.74,1.74,0,0,1,2.33,2.58,1.72,1.72,0,0,1-1.84.31c-3.42-1.29-6.54.3-9.71,1.29a55.33,55.33,0,0,0-16.68,10c-2.59,2.14-4.68,4.52-7.4,6.62-3.46,2.89-10,3.69-12.64-.88-2.3-4.44,1.35-8.71,4.09-11.8,2.95-3.73,5.41-8.63,4.11-13.49a1.5,1.5,0,1,1,2.83.19Z"/><path class="cls-3" d="M90.85,103.36a2.07,2.07,0,0,0,3.09-1.88c-.16-1.46-1.67-2-3-2.35-7-1.73-13.79,4.31-12.39,11.44.85,3.91,3.68,7.31,5.64,11a41.48,41.48,0,0,1,2.74,6.24c1.82,5.76,3.21,15-2.56,19a6.8,6.8,0,0,1-10.29-5.13,6,6,0,0,1,2.75-5.83c2-1.21,5-.55,5.75,1.78,1,2.69-1.68,4.79-4.46,4.31a1,1,0,0,1,.21-2,1,1,0,0,1,.83.62c.44.95,1.92.76,2.56.07,1.64-1.55.42-4.49-1.66-4.92-3.38-.9-6.09,2.79-5.58,5.92A6.2,6.2,0,0,0,84,146.18c3.65-2.53,3.67-7.63,3.12-11.64a23.69,23.69,0,0,0-4.84-11.7c-5.23-5.73-10-10.69-6.36-19.1A12.38,12.38,0,0,1,88,96.61c2.42.26,5,.85,6.51,3,1.74,2.51-1.23,5.67-3.63,3.79Z"/><path class="cls-3" d="M87.58,131.57c1.55,7.56,10.39,10.13,17.19,8.84,4.84-.63,9.65-3.16,14.67-1.92a7.28,7.28,0,0,1,5.41,5,4.66,4.66,0,0,1-3.5,5.82c-1.89.43-4.08-1.15-3.65-3.2a2.88,2.88,0,0,1,1.16-1.87.84.84,0,0,1,1.29,0,.78.78,0,0,1-.93,1.18c-1.22-.31-1.77,1.55-1,2.41,2.7,3.49,7.7-.58,6.26-4.26-3.37-8.12-13.23-3.05-19.5-2.13a22.66,22.66,0,0,1-7.53,0c-5-.85-9.82-4.53-10.67-9.73a.43.43,0,0,1,.85-.15Z"/><path class="cls-1" d="M90.2,140c1.89,4.26,1.39,9.86-1.85,13.38-1.72,1.87-5.29,2.1-6.62-.34-1.46-3.05,2-5.4,4.5-3.18a.77.77,0,0,1-1,1.21.81.81,0,0,1-.29-.54c-.13-1-1.67-1.33-2.38-.63-1.87,1.72.09,4.37,2.3,4.08,5.55-.95,6.68-9.43,5.3-14Z"/><path class="cls-3" d="M217.32,4.7A15.42,15.42,0,0,1,229.88.06a13.19,13.19,0,0,1,4.4,1.5c2.71,1.34,5.5,2.36,7.79,4.37C249,11.7,251.23,22,248,30.36c-2.79,7.83-10.69,11.82-15.81,17.83A33.35,33.35,0,0,0,226,59c-3.33,9.7-2.37,21.11,3,29.82,2.06,3.55,5.31,7,7.27,10.91,7.19,13.86-4.91,24.6-18.45,18.08a49,49,0,0,1-7.68-4.78c-9.25-6.65-18.51-13.53-29.23-17.4-10.4-3.7-22.67-4.18-32.26,1.94-2.52,1.55-5.37,3.4-8.57,2.94-5.14-.68-8.28-7.1-3.55-10.53a4.53,4.53,0,0,1,4.44-.68c2.81,1.25,3.28,6,.36,7.33A3.4,3.4,0,0,0,143,93a3.51,3.51,0,0,0-6-2.37c-5.08,4.58,1.88,10.59,7,7.46,3.72-2.16,7.27-5,11.54-6.24,8.56-2.85,18-2.15,26.45.55a76.9,76.9,0,0,1,16,7.48c5.05,3,9.83,6.33,14.59,9.57,3.48,2.35,6.72,4.61,10.7,5.45,3.2.7,7.5-.24,9.16-3,4-7.53-4.28-14.48-7.46-20.84-4.47-8.14-5.27-17.67-3.36-26.56a38.68,38.68,0,0,1,13.89-22.27c3.33-2.76,6.75-5.28,9.25-8.78,7.08-9.91,2.87-25.7-8.94-29.71-2-.64-4.15-.31-6.2-.33A36,36,0,0,0,217.32,4.7Z"/><path class="cls-1" d="M227.33,7.06c-6-1.7-13.8,1.64-13.2,8.6.31,3.59,4.65,6.43,7.76,4.23a4.47,4.47,0,0,0,1.55-5.16c-.62-1.92-3.4-3-4.89-1.37a2.38,2.38,0,0,0-.44,2.84,1.69,1.69,0,0,0,2.49.49c.71-.72,1.51.64.55.91a2.71,2.71,0,0,1-2.79-4.41c1.65-1.84,4.76-.86,5.72,1.24,2.53,4.77-3.73,10.5-8.31,7.61-4.67-2.51-4.25-9.38-.63-12.51,3.38-3.08,7.92-3.84,12.33-4.06a.8.8,0,1,1-.14,1.59Z"/><path class="cls-3" d="M254.9,33.45c1.32,3.35-.54,7-3.25,8.92-1.75,1.18-4,1.59-5.65,2.81-.81.58-1.59,1.19-2.36,1.81a27.83,27.83,0,0,0-9.18,14.54c-1.32,5.34-2.12,11.1.51,16,2.29,4.46,8.66,6.61,12.27,2.56,2-2.36,1.46-7.1-1.89-8.07-2.48-1.06-5.52,2-3.51,4.25a2.48,2.48,0,0,0,2.58.79,3,3,0,0,1-3.93-1.73,3.91,3.91,0,0,1,1.83-4.48,5.52,5.52,0,0,1,6.55,1.08,7.85,7.85,0,0,1,.67,9.88c-2.87,4.06-8.75,4.75-12.89,2.42-6.21-3.5-8.15-11.15-6.87-17.61a31.65,31.65,0,0,1,8.73-16.27,54.05,54.05,0,0,1,6.94-5.86c1.56-1.2,2.56-3.18,3.61-4.76,1.81-2.48,3.44-3.77,5.84-6.23Z"/><path class="cls-3" d="M235.63,110.6c-.2,6.84-8.55,8.77-13.77,9.83-2.53.61-9.29,2.78-7.2,6.25.76,1,2.62,0,2.25-1.26.8,1.11-.43,2.68-1.71,2.67-2.66-.1-3.35-3.64-2-5.47,5.57-8,17.36-3.8,22.44-12Z"/><path class="cls-3" d="M134.8,92.19c-.27-2.07-2.8-3.7-4.73-2.72a2.39,2.39,0,0,0-1.23,2.67,2.09,2.09,0,0,0,2.7,1.3,2.22,2.22,0,0,1-3-1.19,2.86,2.86,0,0,1,1.25-3.32c2.35-1.37,5.48.58,6,3.07l-.91.19Z"/><path class="cls-1" d="M220.2,82.72c-1.3,4.86,1.16,9.76,4.12,13.49,2.73,3.09,6.39,7.36,4.08,11.8-1.44,2.69-4.85,3.62-7.64,3.15-3.68-.63-6.31-3.28-8.81-5.64a66.12,66.12,0,0,0-11.46-9,49.1,49.1,0,0,0-8.8-4.3c-3.18-1-6.3-2.58-9.71-1.29a1.74,1.74,0,1,1,.49-2.89,11.33,11.33,0,0,0,4.64,2.25c9.63,2.53,19,6.7,26.59,13.32,3.11,2.88,7.14,6.61,11.52,4.59a3.75,3.75,0,0,0,2.1-3.11c.3-4.92-4.55-8.32-6.29-12.64-1.42-3.06-2.32-6.18-3.65-9.55a1.49,1.49,0,1,1,2.82-.19Z"/><path class="cls-3" d="M164.49,103.36c-2.4,1.9-5.38-1.31-3.64-3.79,1.56-2.11,4.09-2.69,6.52-3a12.41,12.41,0,0,1,12.08,7.14c3.6,8.39-1.14,13.37-6.37,19.09a23.78,23.78,0,0,0-4.84,11.7c-.55,4-.53,9.11,3.12,11.64a6.2,6.2,0,0,0,9.51-4.58c.52-3.13-2.19-6.81-5.57-5.92-2.09.43-3.3,3.37-1.67,4.92.65.69,2.13.89,2.57-.07a1,1,0,0,1,1.3-.55,1,1,0,0,1-.26,1.93c-2.79.48-5.46-1.61-4.47-4.31.75-2.33,3.79-3,5.75-1.78a6.06,6.06,0,0,1,2.76,5.83,6.81,6.81,0,0,1-10.3,5.13,8.7,8.7,0,0,1-3.66-5.65c-1.38-6.75.65-13.62,3.85-19.57,2-3.68,4.79-7.08,5.64-11,1.4-7.12-5.41-13.18-12.39-11.44-1.35.34-2.87.9-3,2.35a2.08,2.08,0,0,0,3.1,1.88Z"/><path class="cls-3" d="M168.61,131.72c-1.47,8.2-10.9,11.17-18.2,9.73-6.25-.92-16.15-6-19.51,2.13-1.42,3.7,3.54,7.74,6.26,4.26a1.7,1.7,0,0,0,.2-1.68c-.21-.53-.8-.92-1.24-.73a.78.78,0,1,1,.15-1.36,3,3,0,0,1,1.37,2c.43,2-1.77,3.63-3.66,3.2a4.65,4.65,0,0,1-3.49-5.82c1.51-5.49,8.32-6,12.92-4.69a72.09,72.09,0,0,0,7.15,1.64c6.8,1.29,15.65-1.28,17.2-8.84a.43.43,0,0,1,.85.15Z"/><path class="cls-1" d="M165.14,140c-1.39,4.54-.26,13,5.29,14,2.22.29,4.18-2.36,2.3-4.08-.7-.7-2.25-.37-2.38.63a.77.77,0,1,1-1.25-.66c2.48-2.23,6,.12,4.5,3.17-1.32,2.44-4.89,2.21-6.61.34-3.25-3.52-3.75-9.12-1.85-13.38Z"/></g></g></svg>