<svg xmlns="http://www.w3.org/2000/svg" viewBox="0 0 262.78 59.49"><defs><style>.cls-1{fill:#e8d970;}</style></defs><g id="Layer_2" data-name="Layer 2"><g id="Layer_2-2" data-name="Layer 2"><path class="cls-1" d="M0,1.81c6.12,13.42,22.51,16.33,35.8,15,27.74-1.24,72.34-29.91,96.12-9.42,5.71,5.08,8.59,13.94,5.19,21.14-2.28,4.72-7.09,8.32-12.46,8.27-8.37-.05-14.71-9.33-9.85-16.67,5.9-9.14,17.44-7.64,26.38-5.2-8.45-1.5-19.84-2.49-24.74,6.17-3.64,6,1.66,13,8.2,12.89,4.12-.07,7.9-3.12,9.51-6.83,2.59-5.87,0-13-4.69-17C110.82-6,71.83,13.86,50.09,17.5,32.81,21.13,7.56,21.23,0,1.81Z"/><path class="cls-1" d="M80.72,8c-11,1.08-18.63,9.46-27.34,15.31-5.11,3.4-13.22,7.85-19.57,5.19-3.05-1.36-3.42-5.88-.32-7.38a3.73,3.73,0,0,1,3.94.5,3.54,3.54,0,0,0-3.65,0,3.09,3.09,0,0,0,.66,5.49c3.58,1.2,7.49-.43,10.85-1.86C56.94,19.77,66.46,6.38,80.72,8Z"/><circle class="cls-1" cx="26.24" cy="12.68" r="2.76"/><circle class="cls-1" cx="18.78" cy="12.15" r="1.69"/><circle class="cls-1" cx="115.35" cy="8.23" r="1.69"/><circle class="cls-1" cx="104.72" cy="7.68" r="1.69"/><circle class="cls-1" cx="110.21" cy="7.33" r="1.69"/><path class="cls-1" d="M262.78,1.81C255.21,21.23,230,21.13,212.69,17.5,191,13.87,152-6,133.32,10.09c-4.74,4.05-7.29,11.17-4.7,17,1.62,3.71,5.4,6.77,9.52,6.83,6.55.12,11.82-6.85,8.19-12.89-4.89-8.67-16.27-7.67-24.74-6.17,8.95-2.43,20.48-3.94,26.38,5.2,4.87,7.34-1.49,16.63-9.84,16.67-5.38,0-10.18-3.55-12.46-8.27-3.4-7.2-.52-16.06,5.19-21.14,23.76-20.49,68.36,8.18,96.12,9.42,13.29,1.36,29.69-1.55,35.8-15Z"/><path class="cls-1" d="M182.06,8c14.26-1.65,23.77,11.74,35.43,17.29,3.35,1.43,7.27,3.06,10.85,1.86a3.1,3.1,0,0,0,.66-5.49,3.56,3.56,0,0,0-3.66,0,3.75,3.75,0,0,1,3.95-.5c3.09,1.49,2.74,6-.32,7.37-6.35,2.67-14.46-1.78-19.57-5.18C200.69,17.49,193.07,9.11,182.06,8Z"/><circle class="cls-1" cx="236.53" cy="12.68" r="2.76"/><circle class="cls-1" cx="244" cy="12.15" r="1.69"/><circle class="cls-1" cx="147.42" cy="8.23" r="1.69"/><circle class="cls-1" cx="158.06" cy="7.68" r="1.69"/><circle class="cls-1" cx="152.57" cy="7.33" r="1.69"/><path class="cls-1" d="M134.53,38.77c-1.4,5-5.49,11.5-11.45,10.6-3-.51-5-4.41-2.43-6.64,1-1,3.12-1,3.68.49a1.69,1.69,0,0,1-.54,1.9,1.65,1.65,0,0,1-1.91,0,1.58,1.58,0,0,0,1.83-.1,1.49,1.49,0,0,0-1.08-2.6c-1.94-.05-3.08,2.44-2.18,4,2.14,3.77,7.08,1.61,9-1.28a16.06,16.06,0,0,0,3.11-6.82,1,1,0,1,1,1.95.45Z"/><path class="cls-1" d="M130.19,38.32c.94,4.36,4.13,10.48,9.32,10.07,2.48-.25,4.25-3.33,2.27-5.29-.79-.88-2.56-1-3.1.21a1.5,1.5,0,0,0,2.22,1.81,1.65,1.65,0,0,1-1.91,0,1.69,1.69,0,0,1-.55-1.9c.57-1.48,2.66-1.47,3.68-.49a3.49,3.49,0,0,1,.89,4c-2.24,4.65-8.31,2.68-10.85-.63a17.74,17.74,0,0,1-3.92-7.33,1,1,0,1,1,1.95-.45Z"/><circle class="cls-1" cx="131.39" cy="51.02" r="1.69"/><circle class="cls-1" cx="131.39" cy="55.31" r="1.03"/><circle class="cls-1" cx="131.39" cy="58.7" r="0.79"/></g></g></svg>