<svg xmlns="http://www.w3.org/2000/svg" viewBox="0 0 159.63 535.33"><defs><style>.cls-1{fill:#e8d970;}.cls-2{fill:#d8ba3a;}</style></defs><g id="Layer_2" data-name="Layer 2"><g id="Layer_2-2" data-name="Layer 2"><path class="cls-1" d="M134.91,21.13c-4.54,3-11.21,1.19-14.58-2.89-4.4-5.32-2.39-14.37,4-17.23,2.92-1.38,6.38-1.13,9.42-.52C140.06,2,146,4.6,150.33,9.45c13.22,14.8,9.34,36.15,6.43,54a416.85,416.85,0,0,1-10,45.35A256.27,256.27,0,0,1,138,135.24c-4.56,11.52-10.52,22.54-15.48,33.72-3.54,7.93-5.29,18.12.43,25.38a11.92,11.92,0,0,0,6.31,4.36c6.71,1.79,15-2.93,10.33-10.53-1.45-2.33-3.63-4-6.68-3.72a6,6,0,0,1,4.89-1.61c6,.75,10.36,7.13,9,13.11-2.32,8.4-12.34,11-19.39,7.72-6.49-2.92-9.6-10.29-10-16.91-.47-6.47,1.21-12.65,3.23-18.52,4.29-11.6,7.73-23.35,11.23-35.17,7.36-23.38,14.89-46.66,20.66-70.52,2.73-11.78,6.17-23.86,4.19-36C154.9,13.55,143-2,128.69,5.4c-3.36,1.75-5.53,6.13-3.79,9.73a12.37,12.37,0,0,0,10,6Z"/><path class="cls-1" d="M110.77,100.62c-4.35.74-8.22-3.4-8.64-7.57a7.36,7.36,0,0,1,1-4.54l-.09.15a8.5,8.5,0,0,1,4.11-4.29c5.49-2.52,12.22-.57,16.13,3.91,4.94,6,4.42,14.62,2.75,21.63-8.16,32-28,61.12-29.34,94.76-.67,30.37,17.58,56.53,28,84.18,11.2,28.46,18.56,58.62,20.4,89.19,2.13,40.53.48,84.43-22.27,119.57-11.37,17.24-28.19,32.27-48.8,36.81a39.46,39.46,0,0,1-20.89-1.06c-13.26-4.4-24.28-19-18.43-33,3.1-8,11.42-14.68,20.34-13.27,5.27.87,9.69,4.27,12.94,8.44,3.7,4.49,4,12.28,0,17a13.46,13.46,0,0,1-11.52,5.22c-5.83-.37-11.85-5.48-11.13-11.54a11.45,11.45,0,0,0,12,5.12c5.22-1.33,9.63-9.15,8.14-14.62-1.66-6.46-9.34-9.42-15.44-8.17-6.3,1.33-11.37,6.56-13.53,12.5-6.11,16.29,11.59,31,27,30.13,22.89-1,41.32-19.05,52.29-37.89,14.69-25.59,17.54-55.73,17.54-84.8.09-22.94-2.38-46-6.18-68.58a379.83,379.83,0,0,0-14.05-57.58c-6.3-19.24-15.42-37.14-19.79-57.23-7.94-34.09,7.3-67.45,19.85-98.3C117,116,130.09,91,112.5,87.15c-2.72-.5-5.62.23-7.12,2.69A5.2,5.2,0,0,0,104.21,93c-.14,3.62,2.7,7.55,6.56,7.65Z"/><path class="cls-1" d="M96,100.47a4.79,4.79,0,0,1-2.14.47c-11.52.63-16.68,12.61-20.7,21.84A85.81,85.81,0,0,1,33.42,164c6.42-20.24,22.45-36.26,28.22-56.61,1.58-5.58,2.08-11.4,3.8-17a22.57,22.57,0,0,1,1-3.13c4.77-1.62,7.75-4.92,10.87-8.55,6-7.64,9.6-15.55,20.21-18.38,15.88-4.64,31.81,7.93,30,24.29,0,0-.08.76-.08.77a21.63,21.63,0,0,0-10.94-11.22c-6.63-3-16.07-2.94-20.17,3.84a21.88,21.88,0,0,0-1.19,19.67,6.88,6.88,0,0,1,.79,2.75ZM94.12,99.3c-.36-.18-.59,0-.71-.26-3.29-7.54-2.32-17,2.91-23.44,3.21-3.58,8.35-4.79,13-4.29a22.29,22.29,0,0,1,18.25,13.28l-.39.08h0c-2.35-17.5-22.22-25.73-34.94-13.34-5.77,6.16-9.49,17.35-19.52,18.23a8.71,8.71,0,0,1-6-1.46l.55-.55c5,6.27,3.79,14.87,1.54,22-4.26,14-13.37,25.62-22.15,36.85a208.41,208.41,0,0,0-12.27,17s-.52-.47-.47-.47a83.89,83.89,0,0,0,32.55-30.75C74,120.66,76.15,102,92,99a16.74,16.74,0,0,1,1.85-.17c.08.13,0,.32.23.52Z"/><path class="cls-2" d="M96.78,295.83a55.19,55.19,0,0,1,9.32,14.62,57.57,57.57,0,0,1,5,16.35c.69,5.59.23,11.66.93,17.2,4.4,31.14,11.38,72.74-4.92,101.25-6,10.31-15.53,19-27.14,22.29-5.74,1.61-12.13,1.77-17.74-.59-8.66-3.47-13.84-12.87-10.5-21.87a17.18,17.18,0,0,1,5.13-7.16,26,26,0,0,1,8-5c5-2,12.35-.71,15.52,4.56,3.12,4.48,1.6,12-3.95,13.64a4.6,4.6,0,0,1-3-.14,6.9,6.9,0,0,0,.39-4.23,11.51,11.51,0,0,0-3.09-5.52c-9.1-8.81-20.39,1.14-17.94,12.24,1.67,8,10.42,12.43,18.11,11.58,7.87-.73,15-5.18,20.42-10.71,11.3-11.66,15.51-27.85,18-43.55,2.54-16.46,4.25-33.13,2.91-49.83a120.43,120.43,0,0,0-2.26-16.6c-1.3-5.45-4.09-10.55-6.19-15.7s-3.21-10.54-4.51-15.93a99.07,99.07,0,0,1-2.48-16.91Z"/><path class="cls-2" d="M70.71,241.38c10.69,10,16.15,25.17,16.41,39.78.17,7.35-1.09,13.44-.86,20.25.24,6.59,1.65,12.82,3.13,19.49,4.09,18.24,7,37,6.73,55.71C96.31,388,94.48,403,81.44,406.38a10.84,10.84,0,0,1-10.34-2.76c-3.14-3-4.64-8.2-2-11.95s9.06-5.95,12.18-1.6c1.82,2.19,2.24,5.73.34,8-1.54,2-4.81,3-6.94,1.5a5,5,0,0,0,5.21-2.66c1.3-2.56-.69-5.3-3-6.34-2.86-1.66-6.31.33-7.3,3.29-1.44,4.12,1.48,8.77,5.23,10.48,4,1.84,8.8.15,12-2.63,7.1-6.21,7-16.29,6.74-25.06-.62-18.35-4.11-36.54-11.61-53.34-3.81-8.72-7.5-18.72-7-28.55.38-9.55,1.34-17.36.47-26.59a171.56,171.56,0,0,0-4.62-26.78Z"/><path class="cls-2" d="M71.48,147.6c-4.92,13.79-15.05,25.33-26.95,33.66a15.8,15.8,0,0,1-3.18,1.85c-2.37.93-5.25.78-7.74,1.07a13.49,13.49,0,0,0-3.55.89c-6.48,2.58-13.37,6.06-20.54,4.3-6-1.49-11.78-8.55-8.64-14.8a8.79,8.79,0,0,1,12-3.32,6.86,6.86,0,0,1,3.15,4.68c.61,3-1.42,7.06-4.66,6.8a3.94,3.94,0,0,0,.79-1.57c.3-1.54-.29-3.47-1.6-4.15a4.19,4.19,0,0,0-3.36.9,5,5,0,0,0-2.16,6.25,8,8,0,0,0,4.74,4.25c6.77,2.66,13.85-1.07,19.78-4.26,2.17-1.18,3.62-3.39,5-5.44a12.94,12.94,0,0,1,5-4.83c11.64-7.55,21.86-16.61,31.92-26.28Z"/><path class="cls-2" d="M107.36,189.48a68.93,68.93,0,0,0,10.9,49.13c3.34,4.54,7.94,13.11,14.56,11.57,5-1.21,5.56-9.37,0-10-1.43-.12-3.16-.13-3.3,1.61a1.8,1.8,0,0,0,1.34,2c-1.16.61-2.49-.58-2.79-1.73-1-3.08,2.92-5,5.33-3.75a9,9,0,0,1,4.11,5.2,7.23,7.23,0,0,1-4,8.47c-9.22,3.42-16-7.33-20.07-13.94a65.14,65.14,0,0,1-6-48.52Z"/><circle class="cls-2" cx="38.39" cy="482.12" r="3.02"/><circle class="cls-2" cx="29.28" cy="490.66" r="4.27"/><circle class="cls-1" cx="73.33" cy="426.42" r="3.02"/><circle class="cls-2" cx="48.02" cy="122.44" r="3.02"/><circle class="cls-1" cx="43.24" cy="130.41" r="2.29"/><circle class="cls-2" cx="39.07" cy="137.65" r="2.29"/><circle class="cls-1" cx="34.79" cy="145.31" r="2.29"/><circle class="cls-2" cx="132.4" cy="12.38" r="2.29"/><circle class="cls-2" cx="136.98" cy="177.66" r="2.29"/><circle class="cls-2" cx="146.28" cy="179.37" r="3.27"/><circle class="cls-1" cx="62.88" cy="425.85" r="4.27"/><circle class="cls-2" cx="22.67" cy="505.18" r="6.62"/></g></g></svg>